<?xml version="1.0" encoding="UTF-8"?>
<svg version="1.1" xmlns="http://www.w3.org/2000/svg" width="1024" height="1024">
<path d="M0 0 C337.92 0 675.84 0 1024 0 C1024 337.92 1024 675.84 1024 1024 C686.08 1024 348.16 1024 0 1024 C0 686.08 0 348.16 0 0 Z " fill="#FDFEFD" transform="translate(0,0)"/>
<path d="M0 0 C5.88555143 2.02755839 9.05713288 5.84869932 12.08984375 11.1328125 C15.50428189 18.13753967 15.033944 27.64538878 12.8125 35 C10.67303338 40.35364204 7.93495924 43.81533108 2.9375 46.875 C-2.69325505 48.93262821 -9.42944297 49.08866349 -15.15234375 47.34375 C-20.87316209 44.43952712 -23.91064895 39.59369297 -26.3125 33.875 C-27.93827752 24.71152672 -28.17607048 16.0329925 -23 8 C-16.35185246 0.15859521 -9.99248556 -1.25661245 0 0 Z " fill="#1A4750" transform="translate(897,460)"/>
<path d="M0 0 C3.96 0 7.92 0 12 0 C12.63808594 1.79308594 13.27617188 3.58617187 13.93359375 5.43359375 C14.76808079 7.76828221 15.60272427 10.10291475 16.4375 12.4375 C17.06881836 14.21350586 17.06881836 14.21350586 17.71289062 16.02539062 C18.11572266 17.15009766 18.51855469 18.27480469 18.93359375 19.43359375 C19.4913147 20.99678345 19.4913147 20.99678345 20.06030273 22.59155273 C20.78099555 24.91490302 20.78099555 24.91490302 22 26 C22.3556604 24.8718689 22.3556604 24.8718689 22.71850586 23.72094727 C23.78831645 20.33378172 24.86284241 16.94813067 25.9375 13.5625 C26.31068359 12.37849609 26.68386719 11.19449219 27.06835938 9.97460938 C27.42607422 8.84990234 27.78378906 7.72519531 28.15234375 6.56640625 C28.48226318 5.52427979 28.81218262 4.48215332 29.15209961 3.40844727 C30 1 30 1 31 0 C34.96 0 38.92 0 43 0 C43 15.51 43 31.02 43 47 C39.7 47 36.4 47 33 47 C33 37.43 33 27.86 33 18 C31.15703976 23.60738015 31.15703976 23.60738015 29.32104492 29.21704102 C27.76206658 33.92695341 26.02467083 38.47033103 24 43 C22.02 43 20.04 43 18 43 C15.03 34.09 12.06 25.18 9 16 C9 25.9 9 35.8 9 46 C6.03 46 3.06 46 0 46 C0 30.82 0 15.64 0 0 Z " fill="#17454B" transform="translate(103,461)"/>
<path d="M0 0 C5.754375 -0.12375 5.754375 -0.12375 11.625 -0.25 C12.82334473 -0.28641602 14.02168945 -0.32283203 15.25634766 -0.36035156 C21.51578545 -0.42552119 25.25665594 -0.22070515 30 4 C30.8971875 4.7734375 30.8971875 4.7734375 31.8125 5.5625 C34.62725284 8.96983239 34.27924414 12.81133787 34 17 C31.37243402 24.50733138 31.37243402 24.50733138 28 27 C27.34 27 26.68 27 26 27 C26.27263672 27.49927002 26.54527344 27.99854004 26.82617188 28.51293945 C28.05726849 30.77600018 29.27871213 33.04413199 30.5 35.3125 C30.92925781 36.09818359 31.35851562 36.88386719 31.80078125 37.69335938 C32.20683594 38.45068359 32.61289063 39.20800781 33.03125 39.98828125 C33.59682617 41.03302612 33.59682617 41.03302612 34.17382812 42.09887695 C35 44 35 44 35 47 C31.37 47 27.74 47 24 47 C22.82592979 44.73272667 21.66060261 42.46165376 20.5 40.1875 C20.16613281 39.54490234 19.83226562 38.90230469 19.48828125 38.24023438 C17.99760916 35.30452301 17 33.33873483 17 30 C15.02 30 13.04 30 11 30 C11 35.61 11 41.22 11 47 C7.37 47 3.74 47 0 47 C0 31.49 0 15.98 0 0 Z " fill="#1C484F" transform="translate(196,461)"/>
<path d="M0 0 C23 0 23 0 31 4 C34.28841272 7.59670141 34.45687806 11.0942278 34.29296875 15.78515625 C33.6950727 20.30525041 31.59829509 24.18394297 28 27 C27.34 27 26.68 27 26 27 C26.45439453 27.81005493 26.45439453 27.81005493 26.91796875 28.63647461 C28.28083586 31.06893031 29.64045778 33.50318453 31 35.9375 C31.47695313 36.78763672 31.95390625 37.63777344 32.4453125 38.51367188 C32.89648438 39.32255859 33.34765625 40.13144531 33.8125 40.96484375 C34.44091797 42.08814087 34.44091797 42.08814087 35.08203125 43.23413086 C36 45 36 45 36 46 C32.04 46 28.08 46 24 46 C23.48050781 44.85660156 22.96101562 43.71320313 22.42578125 42.53515625 C21.72231864 41.04381551 21.0178383 39.55295454 20.3125 38.0625 C19.80299805 36.93038086 19.80299805 36.93038086 19.28320312 35.77539062 C18.93837891 35.05673828 18.59355469 34.33808594 18.23828125 33.59765625 C17.92930908 32.93258057 17.62033691 32.26750488 17.30200195 31.58227539 C15.79489624 29.41074901 15.79489624 29.41074901 11 29 C11 34.94 11 40.88 11 47 C7.37 47 3.74 47 0 47 C0 31.49 0 15.98 0 0 Z " fill="#1E4B53" transform="translate(755,461)"/>
<path d="M0 0 C23 0 23 0 29 3 C33.19954484 7.65354968 34.35445086 10.52835937 34.28515625 16.67578125 C33.8465413 20.25079353 32.34164608 22.3331253 30 25 C28.68939589 25.71030916 27.35855654 26.38636627 26 27 C26.6496875 28.12019531 27.299375 29.24039062 27.96875 30.39453125 C28.8128371 31.86699431 29.65656867 33.33966121 30.5 34.8125 C30.92925781 35.55048828 31.35851562 36.28847656 31.80078125 37.04882812 C32.20683594 37.76103516 32.61289062 38.47324219 33.03125 39.20703125 C33.59682617 40.18893433 33.59682617 40.18893433 34.17382812 41.19067383 C35 43 35 43 35 46 C31.37 46 27.74 46 24 46 C22.82845707 43.71070947 21.66261926 41.41881638 20.5 39.125 C20.16613281 38.47402344 19.83226562 37.82304687 19.48828125 37.15234375 C17 32.2265625 17 32.2265625 17 30 C15.02 30 13.04 30 11 30 C11 35.61 11 41.22 11 47 C7.37 47 3.74 47 0 47 C0 31.49 0 15.98 0 0 Z " fill="#1E4B52" transform="translate(918,461)"/>
<path d="M0 0 C10 0 10 0 12.0078125 1.66015625 C12.37648438 2.45292969 12.74515625 3.24570312 13.125 4.0625 C13.57617188 4.96484375 14.02734375 5.8671875 14.4921875 6.796875 C14.98976563 7.85390625 15.48734375 8.9109375 16 10 C16.68181157 11.28049173 17.37240848 12.55633254 18.0703125 13.828125 C20.98076721 19.14142719 23.74408602 24.36021506 26 30 C26 20.43 26 10.86 26 1 C29.3 1 32.6 1 36 1 C36 16.18 36 31.36 36 47 C32.37 47 28.74 47 25 47 C23.43344164 44.06460424 21.87171824 41.12679225 20.3125 38.1875 C19.65991211 36.96643555 19.65991211 36.96643555 18.99414062 35.72070312 C15.7308088 29.55663189 12.89888466 23.37754626 10 17 C10 27.23 10 37.46 10 48 C6.7 48 3.4 48 0 48 C0 32.16 0 16.32 0 0 Z " fill="#1E4B54" transform="translate(307,460)"/>
<path d="M0 0 C4.29 0 8.58 0 13 0 C14.51305262 4.65855886 16.02462836 9.31759353 17.53491211 13.97705078 C18.04753975 15.5579075 18.56055167 17.13863967 19.07397461 18.71923828 C23.82921798 33.36001679 23.82921798 33.36001679 25.85546875 39.9140625 C26.08258545 40.64834473 26.30970215 41.38262695 26.54370117 42.13916016 C27 44 27 44 27 47 C23.37 47 19.74 47 16 47 C15.01 41.555 15.01 41.555 14 36 C9.05 36.33 4.1 36.66 -1 37 C-1.309375 38.464375 -1.61875 39.92875 -1.9375 41.4375 C-2.875 45.875 -2.875 45.875 -4 47 C-5.68608966 47.07205511 -7.37500659 47.08386068 -9.0625 47.0625 C-9.98160156 47.05347656 -10.90070313 47.04445313 -11.84765625 47.03515625 C-12.55792969 47.02355469 -13.26820313 47.01195312 -14 47 C-13.41017421 41.87741473 -12.25107003 37.22291949 -10.56640625 32.34375 C-10.32840805 31.63778687 -10.09040985 30.93182373 -9.84519958 30.20446777 C-9.09001027 27.96766204 -8.32665459 25.73375699 -7.5625 23.5 C-6.80349018 21.26574186 -6.04623655 19.0309037 -5.29051208 16.79553223 C-4.82194997 15.4112227 -4.35127414 14.02762605 -3.87806702 12.64489746 C-2.45431631 8.45890838 -1.18327962 4.25829269 0 0 Z " fill="#18474E" transform="translate(165,461)"/>
<path d="M0 0 C2.35904399 1.78522248 3.35526125 2.97400762 4.3125 5.75 C2.9925 7.4 1.6725 9.05 0.3125 10.75 C-0.326875 10.42 -0.96625 10.09 -1.625 9.75 C-5.72683946 8.41062385 -9.41205283 8.12148599 -13.6875 8.75 C-16.71727081 10.49050664 -18.1792035 11.92704377 -20 14.875 C-21.70117446 21.98900229 -21.327243 28.38044976 -17.6875 34.75 C-15.44380771 36.86576247 -14.19960665 37.69180606 -11.109375 38.04296875 C-9.78679688 37.99076172 -9.78679688 37.99076172 -8.4375 37.9375 C-7.54546875 37.91042969 -6.6534375 37.88335937 -5.734375 37.85546875 C-4.72117187 37.80326172 -4.72117187 37.80326172 -3.6875 37.75 C-3.6875 34.78 -3.6875 31.81 -3.6875 28.75 C-6.3275 28.75 -8.9675 28.75 -11.6875 28.75 C-11.6875 25.78 -11.6875 22.81 -11.6875 19.75 C-5.7475 19.75 0.1925 19.75 6.3125 19.75 C6.52878733 23.31573694 6.68703219 26.86838899 6.8125 30.4375 C6.91304687 31.94860352 6.91304687 31.94860352 7.015625 33.49023438 C7.20603104 40.70186308 7.20603104 40.70186308 4.77734375 43.55078125 C0.21179955 46.67786632 -4.23725061 47.56537863 -9.6875 47.375 C-10.38593018 47.35953125 -11.08436035 47.3440625 -11.80395508 47.328125 C-17.5612522 47.04842915 -21.69520909 45.97416639 -25.6875 41.75 C-32.14087789 33.22697819 -32.60353837 25.17185552 -31.6875 14.75 C-29.99058055 7.70676203 -24.81586468 3.34573144 -18.8671875 -0.39453125 C-13.09517697 -2.65989022 -5.7456144 -1.9476659 0 0 Z " fill="#18444C" transform="translate(700.6875,461.25)"/>
<path d="M0 0 C1.625 0.9921875 1.625 0.9921875 3.75 3.2421875 C3.75 7.51045623 3.37386487 8.18101182 0.75 11.2421875 C-0.4875 10.7471875 -0.4875 10.7471875 -1.75 10.2421875 C-6.0138346 9.02394904 -8.82046125 8.82032667 -13.25 9.2421875 C-16.81772744 11.41384768 -18.71019687 13.39943321 -20.25 17.2421875 C-21.14438439 24.61565877 -20.79086297 30.27419617 -16.25 36.2421875 C-12.93629 38.4513275 -11.9053979 38.46700303 -8.0625 38.3671875 C-7.16144531 38.34914063 -6.26039063 38.33109375 -5.33203125 38.3125 C-4.64496094 38.28929687 -3.95789063 38.26609375 -3.25 38.2421875 C-3.25 35.2721875 -3.25 32.3021875 -3.25 29.2421875 C-5.89 29.2421875 -8.53 29.2421875 -11.25 29.2421875 C-11.25 26.2721875 -11.25 23.3021875 -11.25 20.2421875 C-5.31 20.2421875 0.63 20.2421875 6.75 20.2421875 C6.96628733 23.80792444 7.12453219 27.36057649 7.25 30.9296875 C7.35054688 32.44079102 7.35054688 32.44079102 7.453125 33.98242188 C7.64353104 41.19405058 7.64353104 41.19405058 5.21484375 44.04296875 C0.64929955 47.17005382 -3.79975061 48.05756613 -9.25 47.8671875 C-9.94843018 47.85171875 -10.64686035 47.83625 -11.36645508 47.8203125 C-17.13306591 47.54016418 -21.24455307 46.46004449 -25.25 42.2421875 C-31.79324991 33.89789152 -32.01064666 25.55438295 -31.25 15.2421875 C-29.46173263 8.20761767 -24.39969465 3.88784435 -18.4609375 0.1015625 C-13.05514551 -1.99962873 -5.47019982 -1.84239369 0 0 Z " fill="#17454C" transform="translate(438.25,460.7578125)"/>
<path d="M0 0 C4.29 0 8.58 0 13 0 C13.36351562 1.16273438 13.72703125 2.32546875 14.1015625 3.5234375 C14.60904175 5.1407296 15.11688251 6.7579083 15.625 8.375 C16.0267041 9.65491821 16.0267041 9.65491821 16.43652344 10.96069336 C18.05353329 16.0857844 19.73040323 21.18505844 21.46777344 26.27050781 C23.81354103 33.14381186 25.83966348 39.80591355 27 47 C23.37 47 19.74 47 16 47 C14.80712589 43.12315913 14 40.08378077 14 36 C9.05 36.33 4.1 36.66 -1 37 C-1.99 39.97 -2.98 42.94 -4 46 C-7.3 46 -10.6 46 -14 46 C-12.28326295 38.37936236 -10.03441284 31.1392694 -7.3359375 23.8125 C-5.29471007 18.13203844 -3.67997462 12.31885595 -2.015625 6.51953125 C-1.38496121 4.33403867 -0.71931319 2.15793957 0 0 Z " fill="#1C4951" transform="translate(596,461)"/>
<path d="M0 0 C2.18359375 1.10546875 2.18359375 1.10546875 5.43359375 3.10546875 C4.88635692 6.4800959 4.37869375 8.18781875 2.43359375 11.10546875 C0.26485123 10.59942883 -1.56608252 10.10563062 -3.56640625 9.10546875 C-7.88161364 8.59730726 -11.39547823 8.26480248 -15.00390625 10.85546875 C-19.29071463 17.02847281 -19.3302866 22.6967497 -18.56640625 30.10546875 C-17.13330595 33.92471633 -14.96772615 35.83792215 -11.56640625 38.10546875 C-8.54311369 38.36654755 -5.60764383 38.19362056 -2.56640625 38.10546875 C-2.56640625 35.13546875 -2.56640625 32.16546875 -2.56640625 29.10546875 C-4.87640625 29.10546875 -7.18640625 29.10546875 -9.56640625 29.10546875 C-9.56640625 26.13546875 -9.56640625 23.16546875 -9.56640625 20.10546875 C-3.95640625 20.10546875 1.65359375 20.10546875 7.43359375 20.10546875 C7.64988108 23.67120569 7.80812594 27.22385774 7.93359375 30.79296875 C8.03414062 32.30407227 8.03414062 32.30407227 8.13671875 33.84570312 C8.32762512 41.07628178 8.32762512 41.07628178 5.86547852 43.91064453 C-0.53343949 48.24871067 -7.10955295 47.89648179 -14.56640625 47.10546875 C-19.76583296 46.08366837 -23.08179573 43.13493086 -26.27734375 39.05078125 C-30.42534986 32.79106293 -31.41771128 26.52562746 -30.56640625 19.10546875 C-29.0092468 12.09825124 -26.34766817 6.2056053 -20.50390625 1.79296875 C-14.36147949 -1.73565939 -6.74021055 -2.34932758 0 0 Z " fill="#18454C" transform="translate(655.56640625,460.89453125)"/>
<path d="M0 0 C3.96 0 7.92 0 12 0 C13.68029835 4.94119683 15.35231804 9.88509333 17.01708984 14.83154297 C17.58324263 16.51002325 18.15155744 18.18777602 18.72216797 19.86474609 C24.55404651 37.01312449 24.55404651 37.01312449 26 46 C22.37 46 18.74 46 15 46 C14.34 42.7 13.68 39.4 13 36 C8.05 36 3.1 36 -2 36 C-2.66 39.3 -3.32 42.6 -4 46 C-7.3 46 -10.6 46 -14 46 C-13.32525796 41.35576488 -12.21670536 36.92602703 -10.875 32.4375 C-10.55547363 31.35940063 -10.55547363 31.35940063 -10.22949219 30.25952148 C-2.85627619 5.71255237 -2.85627619 5.71255237 0 0 Z " fill="#18474F" transform="translate(807,461)"/>
<path d="M0 0 C4.29 0 8.58 0 13 0 C13.44730469 1.41410156 13.89460937 2.82820313 14.35546875 4.28515625 C14.96592299 6.21100815 15.57661674 8.13678414 16.1875 10.0625 C16.50485107 11.06369873 16.82220215 12.06489746 17.14916992 13.09643555 C18.98050345 18.85555226 20.86177649 24.59288829 22.8125 30.3125 C24.56414935 35.50982802 25.9610325 40.61625932 27 46 C23.37 46 19.74 46 16 46 C14.68373308 42.38026598 14 39.90432869 14 36 C9.05 36 4.1 36 -1 36 C-1.66 39.3 -2.32 42.6 -3 46 C-6.63 46 -10.26 46 -14 46 C-11.01694628 35.23640411 -7.98643691 24.58600406 -4.1015625 14.109375 C-2.45800715 9.47011948 -1.22359147 4.76556676 0 0 Z " fill="#19474F" transform="translate(724,461)"/>
<path d="M0 0 C3.3 0 6.6 0 10 0 C10 5.94 10 11.88 10 18 C15.28 18 20.56 18 26 18 C26 12.06 26 6.12 26 0 C29.3 0 32.6 0 36 0 C36 15.18 36 30.36 36 46 C32.7 46 29.4 46 26 46 C26 39.4 26 32.8 26 26 C20.72 26 15.44 26 10 26 C10 32.6 10 39.2 10 46 C6.7 46 3.4 46 0 46 C0 30.82 0 15.64 0 0 Z " fill="#17464F" transform="translate(452,461)"/>
<path d="M0 0 C2.1875 1.1015625 2.1875 1.1015625 5.4375 3.1015625 C5.4375 7.36983123 5.06136487 8.04038682 2.4375 11.1015625 C1.633125 10.7715625 0.82875 10.4415625 0 10.1015625 C-4.30054795 8.89439115 -8.13216181 8.92434897 -12.5625 9.1015625 C-12.5625 11.0815625 -12.5625 13.0615625 -12.5625 15.1015625 C-11.45390625 15.62105469 -10.3453125 16.14054687 -9.203125 16.67578125 C-7.73927028 17.37955756 -6.2757458 18.08402105 -4.8125 18.7890625 C-4.08289063 19.12873047 -3.35328125 19.46839844 -2.6015625 19.81835938 C1.77044484 21.94474476 4.8537715 23.80870094 7.4375 28.1015625 C8.34052315 32.25404692 7.89348315 36.02160242 6.25 39.9140625 C3.39377898 43.3612258 0.70374316 45.67948145 -3.5625 47.1015625 C-11.41860904 47.80032696 -17.83053089 48.07124635 -24.3046875 43.1953125 C-24.71976563 42.834375 -25.13484375 42.4734375 -25.5625 42.1015625 C-24.83883685 38.75725513 -23.74534504 36.75893907 -21.5625 34.1015625 C-17.5625 36.1015625 -17.5625 36.1015625 -15.75 37.2265625 C-12.59655402 38.48794089 -9.92197682 38.34588809 -6.5625 38.1015625 C-5.5725 37.4415625 -4.5825 36.7815625 -3.5625 36.1015625 C-3.53442051 33.69968159 -3.53442051 33.69968159 -4.5625 31.1015625 C-6.84469284 29.71850585 -8.8753349 28.67790345 -11.3125 27.6640625 C-17.45375344 25.08397158 -21.4757848 22.27499291 -24.5625 16.1015625 C-25.35410144 9.42949325 -25.35410144 9.42949325 -23.36328125 6.08984375 C-17.23078483 -1.27842021 -9.27797741 -3.2529494 0 0 Z " fill="#18474E" transform="translate(88.5625,460.8984375)"/>
<path d="M0 0 C3.03300531 1.04259558 5.26231829 2.28223893 8 4 C8 8.26826873 7.62386487 8.93882432 5 12 C-0.75 10.125 -0.75 10.125 -3 9 C-6 8.75 -6 8.75 -9 9 C-11.27994514 10.81689557 -11.27994514 10.81689557 -11.04296875 13.4453125 C-10.19681123 16.2999695 -10.19681123 16.2999695 -7.05078125 17.5546875 C-5.81714844 17.99039062 -4.58351563 18.42609375 -3.3125 18.875 C2.41082115 21.09229879 7.31202361 23.16991423 10 29 C10.90653495 33.05969998 10.23875152 36.34657478 8.8125 40.25 C6.18561967 44.23561154 3.53058408 46.48980531 -1 48 C-8.85610904 48.69876446 -15.26803089 48.96968385 -21.7421875 44.09375 C-22.15726563 43.7328125 -22.57234375 43.371875 -23 43 C-22.27633685 39.65569263 -21.18284504 37.65737657 -19 35 C-15 37 -15 37 -13.1875 38.125 C-10.03405402 39.38637839 -7.35947682 39.24432559 -4 39 C-3.01 38.34 -2.02 37.68 -1 37 C-0.97233636 34.60084752 -0.97233636 34.60084752 -2 32 C-4.28337634 30.58932771 -6.30605558 29.53397648 -8.75 28.5 C-13.68635355 26.35954794 -17.45034291 24.15441348 -21 20 C-22.24283781 16.27148658 -22.5280726 12.87253239 -22 9 C-17.14541483 -0.52937089 -9.84997369 -1.12469651 0 0 Z " fill="#19464F" transform="translate(555,460)"/>
<path d="M0 0 C2.1875 1.1015625 2.1875 1.1015625 5.4375 3.1015625 C5.4375 7.36983123 5.06136487 8.04038682 2.4375 11.1015625 C1.7775 10.7921875 1.1175 10.4828125 0.4375 10.1640625 C-3.30765563 8.83765321 -6.59842212 8.42648692 -10.5625 8.1015625 C-11.5525 8.5965625 -11.5525 8.5965625 -12.5625 9.1015625 C-12.98030879 11.47461828 -12.98030879 11.47461828 -12.5625 14.1015625 C-8.15393108 17.16418808 -3.15427476 19.23633116 1.6953125 21.50390625 C4.53684226 23.15944139 5.88220087 24.22661561 7.4375 27.1015625 C8.30476021 32.27387116 8.01226862 36.81408079 5.875 41.6015625 C1.00604676 46.59536069 -3.2337835 47.29629316 -10 47.5390625 C-15.91522377 47.42294379 -19.58291322 46.22600911 -24.5625 43.1015625 C-24.5625 38.83329377 -24.18636487 38.16273818 -21.5625 35.1015625 C-19.40746721 35.56335524 -17.70742928 36.01356972 -15.8125 37.1640625 C-12.33536732 38.61286778 -9.3169532 38.28322959 -5.5625 38.1015625 C-4.5725 37.6065625 -4.5725 37.6065625 -3.5625 37.1015625 C-3.5625 35.1215625 -3.5625 33.1415625 -3.5625 31.1015625 C-4.67109375 30.58207031 -5.7796875 30.06257813 -6.921875 29.52734375 C-8.38572972 28.82356744 -9.8492542 28.11910395 -11.3125 27.4140625 C-12.04210937 27.07439453 -12.77171875 26.73472656 -13.5234375 26.38476562 C-17.89086613 24.26060716 -21.01444554 22.4116392 -23.5625 18.1015625 C-24.47772255 13.76530116 -24.58924261 9.15504772 -22.57421875 5.125 C-16.99248203 -1.89105296 -8.22754045 -2.88465595 0 0 Z " fill="#18464E" transform="translate(375.5625,460.8984375)"/>
<path d="M0 0 C4.06631673 1.5361641 6.26157317 3.97106779 8.26953125 7.84765625 C10.26310154 13.72175908 9.84749943 19.90300717 7.25 25.5 C5.65839507 28.48110129 3.91225345 30.26195886 1 32 C-2.72883111 32.66685504 -6.26168695 32.59347106 -10 32 C-13.92035057 29.1997496 -15.51197089 26.49629576 -17 22 C-18.27972736 10.11044001 -18.27972736 10.11044001 -15.25 5.375 C-14.5075 4.59125 -13.765 3.8075 -13 3 C-12.443125 2.38125 -11.88625 1.7625 -11.3125 1.125 C-7.60756789 -0.67739941 -4.03647814 -0.51360206 0 0 Z " fill="#FAFBFB" transform="translate(146,529)"/>
<path d="M0 0 C11.55 0 23.1 0 35 0 C35 2.64 35 5.28 35 8 C31.04 8 27.08 8 23 8 C23 20.54 23 33.08 23 46 C19.7 46 16.4 46 13 46 C13 33.46 13 20.92 13 8 C8.71 8 4.42 8 0 8 C0 5.36 0 2.72 0 0 Z " fill="#18464E" transform="translate(832,461)"/>
<path d="M0 0 C11.22 0 22.44 0 34 0 C34 2.64 34 5.28 34 8 C30.04 8 26.08 8 22 8 C22 20.54 22 33.08 22 46 C18.7 46 15.4 46 12 46 C12 33.46 12 20.92 12 8 C8.04 8 4.08 8 0 8 C0 5.36 0 2.72 0 0 Z " fill="#15434A" transform="translate(494,461)"/>
<path d="M0 0 C11.55 0 23.1 0 35 0 C35 2.64 35 5.28 35 8 C30.71 8 26.42 8 22 8 C22 20.54 22 33.08 22 46 C19.03 46 16.06 46 13 46 C13 33.46 13 20.92 13 8 C8.71 8 4.42 8 0 8 C0 5.36 0 2.72 0 0 Z " fill="#14424A" transform="translate(233,461)"/>
<path d="M0 0 C3.96 0 7.92 0 12 0 C12 15.51 12 31.02 12 47 C8.7 47 5.4 47 2 47 C2 37.43 2 27.86 2 18 C1.01 18 0.02 18 -1 18 C-1.66 18 -2.32 18 -3 18 C-3 17.34 -3 16.68 -3 16 C-3.66 16 -4.32 16 -5 16 C-3.90301833 10.30860098 -2.45946923 5.25432063 0 0 Z " fill="#224E55" transform="translate(134,461)"/>
<path d="M0 0 C5.94 0 11.88 0 18 0 C18.21628733 3.56573694 18.37453219 7.11838899 18.5 10.6875 C18.60054687 12.19860352 18.60054687 12.19860352 18.703125 13.74023438 C18.89353104 20.95186308 18.89353104 20.95186308 16.46484375 23.80078125 C11.89826297 26.92857631 7.45097113 27.81346619 2 27.625 C1.30302002 27.61170654 0.60604004 27.59841309 -0.11206055 27.5847168 C-5.82138685 27.32092175 -9.97466775 26.10295573 -14 22 C-16 19.1875 -16 19.1875 -17 17 C-16.01 17 -15.02 17 -14 17 C-13.34 15.68 -12.68 14.36 -12 13 C-11.34 13 -10.68 13 -10 13 C-9.01 14.485 -9.01 14.485 -8 16 C-7.01 16 -6.02 16 -5 16 C-4.01 16.66 -3.02 17.32 -2 18 C0.51584891 18.24150773 0.51584891 18.24150773 3.1875 18.125 C4.53908203 18.09792969 4.53908203 18.09792969 5.91796875 18.0703125 C6.60503906 18.04710937 7.29210937 18.02390625 8 18 C8 15.03 8 12.06 8 9 C5.36 9 2.72 9 0 9 C0 6.03 0 3.06 0 0 Z " fill="#224E57" transform="translate(689,481)"/>
<path d="M0 0 C5.61 0 11.22 0 17 0 C17.21628733 3.56573694 17.37453219 7.11838899 17.5 10.6875 C17.60054687 12.19860352 17.60054687 12.19860352 17.703125 13.74023438 C17.89403137 20.97081303 17.89403137 20.97081303 15.43188477 23.80517578 C9.04045525 28.13816519 2.44974098 27.80705527 -5 27 C-10.16584835 25.84122237 -13.59950195 23.01877043 -17 19 C-17 18.34 -17 17.68 -17 17 C-16.34 17 -15.68 17 -15 17 C-15 16.34 -15 15.68 -15 15 C-12.69 14.01 -10.38 13.02 -8 12 C-7.38125 12.804375 -6.7625 13.60875 -6.125 14.4375 C-4.25835959 17.03874519 -4.25835959 17.03874519 -2 18 C1.00474497 18.13559318 3.99068847 18.04299016 7 18 C7 15.03 7 12.06 7 9 C4.69 9 2.38 9 0 9 C0 6.03 0 3.06 0 0 Z " fill="#214F59" transform="translate(646,481)"/>
<path d="M0 0 C3.63 0 7.26 0 11 0 C11 15.51 11 31.02 11 47 C7.37 47 3.74 47 0 47 C0 31.49 0 15.98 0 0 Z " fill="#2A555D" transform="translate(288,461)"/>
<path d="M0 0 C2.71926569 0.01732016 4.21566477 0.04299081 6.421875 1.671875 C11.49344217 7.69809011 11.31622478 13.92757138 10.75 21.4375 C9.36204046 25.20481874 7.84187143 27.88742847 4.75 30.4375 C1.68629644 31.11456156 -1.17591598 31.04898145 -4.25 30.4375 C-7.67495715 27.1837907 -9.16747019 24.64432932 -9.48828125 19.953125 C-9.51889969 18.53136445 -9.54338761 17.10946177 -9.5625 15.6875 C-9.59150391 14.98367188 -9.62050781 14.27984375 -9.65039062 13.5546875 C-9.71285712 8.38438353 -8.57596862 5.58383182 -5.25 1.4375 C-3.69070032 -0.12179968 -2.16140432 0.11808997 0 0 Z " fill="#F7F8F8" transform="translate(890.25,468.5625)"/>
<path d="M0 0 C3.3 0 6.6 0 10 0 C10 15.51 10 31.02 10 47 C6.7 47 3.4 47 0 47 C0 31.49 0 15.98 0 0 Z " fill="#1C4A51" transform="translate(390,461)"/>
<path d="M0 0 C5.94 0 11.88 0 18 0 C18.21628733 3.56573694 18.37453219 7.11838899 18.5 10.6875 C18.60054688 12.19860352 18.60054688 12.19860352 18.703125 13.74023438 C18.89345977 20.94916381 18.89345977 20.94916381 16.46704102 23.80297852 C11.86506553 26.96166092 7.42501714 27.77967008 1.9375 27.5625 C1.24011719 27.55025391 0.54273438 27.53800781 -0.17578125 27.52539062 C-5.52364325 27.30926462 -8.85846323 26.31322942 -13 23 C-12.360625 22.896875 -11.72125 22.79375 -11.0625 22.6875 C-10.0415625 22.3471875 -10.0415625 22.3471875 -9 22 C-8.67 21.01 -8.34 20.02 -8 19 C-5.4375 17.8125 -5.4375 17.8125 -3 17 C-2.67 17.33 -2.34 17.66 -2 18 C-0.31391034 18.07205511 1.37500659 18.08386068 3.0625 18.0625 C3.98160156 18.05347656 4.90070313 18.04445313 5.84765625 18.03515625 C6.55792969 18.02355469 7.26820313 18.01195312 8 18 C8 15.03 8 12.06 8 9 C5.36 9 2.72 9 0 9 C0 6.03 0 3.06 0 0 Z " fill="#224F58" transform="translate(427,481)"/>
<path d="M0 0 C1.32 0 2.64 0 4 0 C4 11.22 4 22.44 4 34 C3.01 34 2.02 34 1 34 C1 33.34 1 32.68 1 32 C0.2265625 32.495 0.2265625 32.495 -0.5625 33 C-3.91402596 34.37498501 -6.40965387 34.38467994 -10 34 C-12.36497439 32.13291495 -13.66030715 30.67938569 -15 28 C-16.05290309 17.81692301 -16.05290309 17.81692301 -13.91796875 14.1328125 C-12.5625 12.8125 -12.5625 12.8125 -10 11 C-9.67 10.67 -9.34 10.34 -9 10 C-4.96839809 9.73706944 -3.44107266 9.70595156 0 12 C0 8.04 0 4.08 0 0 Z " fill="#7C7C7C" transform="translate(739,527)"/>
<path d="M0 0 C1.32 0 2.64 0 4 0 C4 11.22 4 22.44 4 34 C3.01 34 2.02 34 1 34 C1 33.34 1 32.68 1 32 C0.01 32.66 -0.98 33.32 -2 34 C-9.11864407 34.6779661 -9.11864407 34.6779661 -12.4375 32.125 C-15.89739539 27.41954228 -15.45931055 22.67576607 -15 17 C-13.72652526 13.8799869 -12.84528687 12.59170081 -10.125 10.6875 C-7.58025818 9.86420117 -5.66046021 9.72713229 -3 10 C-2.01 10.66 -1.02 11.32 0 12 C0 8.04 0 4.08 0 0 Z " fill="#7C7B7A" transform="translate(678,527)"/>
<path d="M0 0 C1.32 0 2.64 0 4 0 C4 11.22 4 22.44 4 34 C3.01 34 2.02 34 1 34 C1 33.34 1 32.68 1 32 C0.01 32.66 -0.98 33.32 -2 34 C-6.71186325 34.53198456 -8.89366112 34.64536434 -13 32.25 C-16.06021905 27.27714404 -16.05612072 22.67758513 -15 17 C-13.50196736 13.94258186 -11.84107665 11.88760875 -9 10 C-4.80896839 9.26040619 -3.56038041 9.62641306 0 12 C0 8.04 0 4.08 0 0 Z " fill="#787878" transform="translate(328,527)"/>
<path d="M0 0 C1.32 0 2.64 0 4 0 C4 3.96 4 7.92 4 12 C4.99 11.34 5.98 10.68 7 10 C10.8973724 9.49164708 12.50556726 9.67037817 15.8125 11.875 C19.02997006 15.00054234 19.19871764 16.86638469 19.3125 21.25 C19.27788997 26.52456813 18.50051899 29.08765524 15 33 C11.87293041 34.5635348 8.42017557 34.39958487 5 34 C4.01 33.34 3.02 32.68 2 32 C2 32.66 2 33.32 2 34 C1.34 34 0.68 34 0 34 C0 22.78 0 11.56 0 0 Z " fill="#828281" transform="translate(340,527)"/>
<path d="M0 0 C2.94031756 2.26178274 3.85842778 3.92855572 4.34375 7.6015625 C4.51221285 12.80987239 4.4845505 16.84534364 1 21 C-1 23 -1 23 -2.875 23.23046875 C-3.57625 23.21628906 -4.2775 23.20210937 -5 23.1875 C-5.70125 23.18105469 -6.4025 23.17460938 -7.125 23.16796875 C-9 23 -9 23 -11 22 C-11 25.3 -11 28.6 -11 32 C-12.32 32 -13.64 32 -15 32 C-15 21.44 -15 10.88 -15 0 C-14.01 0 -13.02 0 -12 0 C-12 0.66 -12 1.32 -12 2 C-11.319375 1.484375 -10.63875 0.96875 -9.9375 0.4375 C-6.07364271 -1.45332378 -4.09918272 -1.19248952 0 0 Z " fill="#7F7E7D" transform="translate(176,538)"/>
<path d="M0 0 C2.70567626 1.82339052 4.53728718 3.07457436 6 6 C6.51124099 11.20460087 6.86132441 15.56445931 4.125 20.125 C0.59087327 23.24334711 -2.13535863 23.47255864 -6.73828125 23.3984375 C-9 23 -9 23 -12 20.5625 C-14.62231863 16.68841255 -15.41807487 12.63098316 -15 8 C-13.81117864 4.51279068 -12.05866983 1.87614055 -9.1875 -0.5 C-5.82896536 -1.26766506 -3.33160098 -0.81828796 0 0 Z " fill="#807F7E" transform="translate(557,538)"/>
<path d="M0 0 C2.92937654 1.81310142 5.43647949 3.87295899 7 7 C7.42526125 11.62062705 7.56310381 15.71290557 5.6875 20 C3.68206237 22.37681497 2.00958199 23.84010304 -1.12109375 24.3359375 C-7.39080525 24.44166619 -7.39080525 24.44166619 -10.5 22.1875 C-13.66593026 17.57051837 -13.77314604 12.4120223 -13 7 C-9.99364795 1.39113423 -6.27102363 -0.72357965 0 0 Z " fill="#7D7E7E" transform="translate(858,537)"/>
<path d="M0 0 C4.95 0 9.9 0 15 0 C20 5 20 5 20.5625 8.5 C19.90709967 12.57804647 18.98291803 14.17832078 16 17 C12.02793243 19.25441673 8.50322732 19.17659715 4 19 C4 22.96 4 26.92 4 31 C2.68 31 1.36 31 0 31 C0 20.77 0 10.54 0 0 Z " fill="#868484" transform="translate(519,530)"/>
<path d="M0 0 C2.39526367 0.05517578 2.39526367 0.05517578 5 1 C6.4855957 3.63623047 6.4855957 3.63623047 7.67578125 7.1171875 C7.99810982 8.03662643 7.99810982 8.03662643 8.32695007 8.97463989 C9.00831554 10.93532064 9.65993663 12.90457107 10.3125 14.875 C10.76969408 16.19463204 11.2286588 17.51365204 11.68945312 18.83203125 C15 28.44089451 15 28.44089451 15 32 C13.35 32 11.7 32 10 32 C9.34 29.03 8.68 26.06 8 23 C4.04 23.33 0.08 23.66 -4 24 C-4.66 26.64 -5.32 29.28 -6 32 C-7.65 32 -9.3 32 -11 32 C-9.22790037 24.64156725 -6.86786263 17.51414235 -4.375 10.375 C-4.06167725 9.47362305 -3.74835449 8.57224609 -3.42553711 7.64355469 C-3.12784424 6.79954102 -2.83015137 5.95552734 -2.5234375 5.0859375 C-2.1200415 3.9419751 -2.1200415 3.9419751 -1.70849609 2.77490234 C-1 1 -1 1 0 0 Z " fill="#848686" transform="translate(477,529)"/>
<path d="M0 0 C4.06631673 1.5361641 6.26157317 3.97106779 8.26953125 7.84765625 C10.26310154 13.72175908 9.84749943 19.90300717 7.25 25.5 C5.65839507 28.48110129 3.91225345 30.26195886 1 32 C-2.72883111 32.66685504 -6.26168695 32.59347106 -10 32 C-13.92035057 29.1997496 -15.51197089 26.49629576 -17 22 C-18.27972736 10.11044001 -18.27972736 10.11044001 -15.25 5.375 C-14.5075 4.59125 -13.765 3.8075 -13 3 C-12.443125 2.38125 -11.88625 1.7625 -11.3125 1.125 C-7.60756789 -0.67739941 -4.03647814 -0.51360206 0 0 Z M-9.875 5.3125 C-13.82315393 10.3057535 -13.4990472 14.79255322 -13 21 C-11.46696367 25.1610986 -10.69096643 26.53935571 -7 29 C-2.93234243 28.92604259 -0.77631157 28.75140318 2.19140625 25.87890625 C4.41459932 22.34004385 4.53580962 20.15391645 4.5 16 C4.5103125 14.80375 4.520625 13.6075 4.53125 12.375 C3.90909636 8.4224945 2.84036243 6.77430749 0 4 C-4.55331177 2.50982524 -6.08046447 2.2603736 -9.875 5.3125 Z " fill="#7B7B7C" transform="translate(146,529)"/>
<path d="M0 0 C1.32 0.33 2.64 0.66 4 1 C5.32 5.95 6.64 10.9 8 16 C9.32 11.05 10.64 6.1 12 1 C13.65 0.67 15.3 0.34 17 0 C17.41572266 1.49853516 17.41572266 1.49853516 17.83984375 3.02734375 C18.20555549 4.33077791 18.57145038 5.63416069 18.9375 6.9375 C19.11990234 7.59685547 19.30230469 8.25621094 19.49023438 8.93554688 C20.22596101 12.23821173 20.22596101 12.23821173 22 15 C23.32 10.05 24.64 5.1 26 0 C27.32 0 28.64 0 30 0 C28.38911645 7.78593716 26.23456312 15.37428218 24 23 C22.35 22.67 20.7 22.34 19 22 C17.68 17.38 16.36 12.76 15 8 C13.08460953 12.96260257 11.39038565 17.86626838 10 23 C8.35 22.67 6.7 22.34 5 22 C4.15583837 19.46148538 3.32452701 16.91989146 2.5 14.375 C2.26152344 13.66214844 2.02304687 12.94929687 1.77734375 12.21484375 C0.42618192 8.00693976 -0.28250044 4.47763202 0 0 Z " fill="#807F7E" transform="translate(567,538)"/>
<path d="M0 0 C2.8570686 2.04972711 4.74891474 3.62698264 5.40087891 7.19213867 C5.4920207 9.74945533 5.43638251 12.25670862 5.3125 14.8125 C5.28994141 15.69615234 5.26738281 16.57980469 5.24414062 17.49023438 C5.18547428 19.6608891 5.09579979 21.8306669 5 24 C4.01 24 3.02 24 2 24 C2 23.34 2 22.68 2 22 C1.505 22.33 1.01 22.66 0.5 23 C-3.20642412 24.48256965 -6.01105689 24.32168896 -10 24 C-12.32749345 20.50875983 -12.50299316 19.10777749 -12 15 C-9.7080836 11.41265259 -7.23420377 10.65350448 -3.25 9.75 C-1.83597978 9.48544138 -0.41995501 9.23059099 1 9 C0.67 7.68 0.34 6.36 0 5 C-3.63 5 -7.26 5 -11 5 C-11 4.01 -11 3.02 -11 2 C-7.1783948 0.20159755 -4.2177461 -0.61508797 0 0 Z " fill="#878785" transform="translate(376,537)"/>
<path d="M0 0 C5.94 0 11.88 0 18 0 C18 1.32 18 2.64 18 4 C13.38 4 8.76 4 4 4 C4 6.97 4 9.94 4 13 C7.63 13 11.26 13 15 13 C15.33 14.32 15.66 15.64 16 17 C12.04 17 8.08 17 4 17 C4 20.63 4 24.26 4 28 C8.62 28 13.24 28 18 28 C18 29.32 18 30.64 18 32 C12.06 32 6.12 32 0 32 C0 21.44 0 10.88 0 0 Z " fill="#8B8B8B" transform="translate(701,529)"/>
<path d="M0 0 C2.66796875 1.3828125 2.66796875 1.3828125 5 4 C5.62457747 7.43327423 5.47067657 10.77498233 5.3125 14.25 C5.28994141 15.18585937 5.26738281 16.12171875 5.24414062 17.0859375 C5.18530595 19.39225674 5.10317146 21.69530838 5 24 C4.401875 23.814375 3.80375 23.62875 3.1875 23.4375 C0.83591238 22.77906313 0.83591238 22.77906313 -2 24 C-8.23321555 24.44522968 -8.23321555 24.44522968 -10.9375 22.875 C-12.52990283 20.06487736 -12.45319325 18.17235276 -12 15 C-9.31117143 11.27700659 -6.38685768 10.09671442 -2 9 C-0.68 9 0.64 9 2 9 C1.34 7.68 0.68 6.36 0 5 C-3.3 5 -6.6 5 -10 5 C-10.33 4.01 -10.66 3.02 -11 2 C-7.17369543 0.19938608 -4.22501011 -0.52812626 0 0 Z " fill="#81807E" transform="translate(807,537)"/>
<path d="M0 0 C3.375 2 3.375 2 6 5 C6.50687865 7.85647239 6.29795219 10.07013677 6 13 C1.05 13 -3.9 13 -9 13 C-7.34922098 16.75170424 -7.34922098 16.75170424 -5 20 C-3.31391034 20.07205511 -1.62499341 20.08386068 0.0625 20.0625 C0.98160156 20.05347656 1.90070312 20.04445313 2.84765625 20.03515625 C3.55792969 20.02355469 4.26820313 20.01195312 5 20 C5 20.99 5 21.98 5 23 C1.30605361 24.84697319 -2.96750487 24.47633033 -7 24 C-9.5 22.25 -9.5 22.25 -11 20 C-11.4125 19.4225 -11.825 18.845 -12.25 18.25 C-13.39613745 14.81158765 -13.56645281 11.54886097 -13 8 C-9.83807041 2.11226904 -6.90981419 -0.94840587 0 0 Z " fill="#94928F" transform="translate(613,537)"/>
<path d="M0 0 C2.57285724 2.172635 4.48996919 3.97993838 6 7 C6 8.98 6 10.96 6 13 C1.05 13 -3.9 13 -9 13 C-8.34 14.98 -7.68 16.96 -7 19 C-4.59454362 20.20272819 -3.05003047 20.10071472 -0.375 20.0625 C0.44226563 20.05347656 1.25953125 20.04445313 2.1015625 20.03515625 C2.72804688 20.02355469 3.35453125 20.01195312 4 20 C4 20.99 4 21.98 4 23 C0.53984865 24.73007568 -3.21672555 24.4835273 -7 24 C-10.49890004 21.88608123 -11.70578686 20.88263941 -13 17 C-13.494097 12.89899494 -13.95235971 8.7767905 -11.953125 5.046875 C-8.29648918 0.61589277 -5.6911504 -0.66954711 0 0 Z " fill="#817E7E" transform="translate(303,537)"/>
<path d="M0 0 C2.9375 2.125 2.9375 2.125 5 5 C5 7.31 5 9.62 5 12 C0.05 12 -4.9 12 -10 12 C-8.67082039 17.47825081 -8.67082039 17.47825081 -7 19 C-5.31391034 19.07205511 -3.62499341 19.08386068 -1.9375 19.0625 C-1.01839844 19.05347656 -0.09929687 19.04445313 0.84765625 19.03515625 C1.55792969 19.02355469 2.26820313 19.01195312 3 19 C3 19.99 3 20.98 3 22 C-0.46015135 23.73007568 -4.21672555 23.4835273 -8 23 C-11.49890004 20.88608123 -12.70578686 19.88263941 -14 16 C-14.494097 11.89899494 -14.95235971 7.7767905 -12.953125 4.046875 C-8.76514067 -1.0279766 -6.31550546 -1.49859451 0 0 Z " fill="#8A8684" transform="translate(199,538)"/>
<path d="M0 0 C2.9375 2.6875 2.9375 2.6875 5 6 C5 7.98 5 9.96 5 12 C-0.28 12 -5.56 12 -11 12 C-9.34922098 15.75170424 -9.34922098 15.75170424 -7 19 C-5.31391034 19.07205511 -3.62499341 19.08386068 -1.9375 19.0625 C-1.01839844 19.05347656 -0.09929688 19.04445313 0.84765625 19.03515625 C1.55792969 19.02355469 2.26820313 19.01195312 3 19 C3 19.99 3 20.98 3 22 C-0.75916628 23.87958314 -4.91515733 23.63484996 -9 23 C-12.79093199 20.27052897 -12.79093199 20.27052897 -14 17 C-14.66814685 12.87419323 -14.73845752 9.11920833 -14 5 C-9.80201134 -0.63414268 -6.76810419 -1.72070446 0 0 Z " fill="#7D7D7A" transform="translate(654,538)"/>
<path d="M0 0 C2.3181362 1.89111111 3.66914015 3.33828031 5 6 C5 7.98 5 9.96 5 12 C-0.28 12 -5.56 12 -11 12 C-9.34922098 15.75170424 -9.34922098 15.75170424 -7 19 C-5.31391034 19.07205511 -3.62499341 19.08386068 -1.9375 19.0625 C-1.01839844 19.05347656 -0.09929687 19.04445313 0.84765625 19.03515625 C1.55792969 19.02355469 2.26820313 19.01195312 3 19 C3 19.99 3 20.98 3 22 C-0.69153519 23.8457676 -4.97021939 23.48175083 -9 23 C-12.09799981 20.80873184 -12.80352112 19.58943664 -14 16 C-14.494097 11.89899494 -14.95235971 7.7767905 -12.953125 4.046875 C-8.7461505 -1.05098821 -6.33677229 -1.42031103 0 0 Z " fill="#7D7C79" transform="translate(281,538)"/>
<path d="M0 0 C1.32 0 2.64 0 4 0 C4.33 6.93 4.66 13.86 5 21 C7.64 17.7 10.28 14.4 13 11 C14.32 11.33 15.64 11.66 17 12 C16.42378906 12.65355469 16.42378906 12.65355469 15.8359375 13.3203125 C14.34728381 15.15923765 13.09104792 16.89888037 12 19 C12.66882932 24.23916299 16.11183002 28.65672149 19 33 C17.02 33.495 17.02 33.495 15 34 C13.9944239 32.54550599 12.99569565 31.08627557 12 29.625 C11.443125 28.81289063 10.88625 28.00078125 10.3125 27.1640625 C9 25 9 25 9 23 C5.87729874 25.51830747 5.05476902 26.7261549 4.25 30.75 C4.1675 31.8225 4.085 32.895 4 34 C2.68 34 1.36 34 0 34 C0 22.78 0 11.56 0 0 Z " fill="#767675" transform="translate(409,527)"/>
<path d="M0 0 C2.15385282 1.83696413 2.92140521 3.29322001 3.234375 6.10766602 C3.29572962 8.66180793 3.26105739 11.19623845 3.1875 13.75 C3.16719727 15.08224609 3.16719727 15.08224609 3.14648438 16.44140625 C3.11121309 18.62822578 3.06192752 20.81379966 3 23 C1.68 23 0.36 23 -1 23 C-1.06058594 21.71222656 -1.12117187 20.42445313 -1.18359375 19.09765625 C-1.26798247 17.41925841 -1.3526313 15.74087364 -1.4375 14.0625 C-1.47681641 13.21236328 -1.51613281 12.36222656 -1.55664062 11.48632812 C-1.61948242 10.27299805 -1.61948242 10.27299805 -1.68359375 9.03515625 C-1.72025146 8.2862915 -1.75690918 7.53742676 -1.79467773 6.76586914 C-1.81771063 4.97538674 -1.81771063 4.97538674 -3 4 C-5.31 4.33 -7.62 4.66 -10 5 C-10.33 10.94 -10.66 16.88 -11 23 C-12.65 23 -14.3 23 -16 23 C-16 15.41 -16 7.82 -16 0 C-14.68 0 -13.36 0 -12 0 C-12 0.66 -12 1.32 -12 2 C-11.319375 1.484375 -10.63875 0.96875 -9.9375 0.4375 C-6.10852228 -1.43625505 -4.06665724 -1.12962701 0 0 Z " fill="#83817F" transform="translate(225,538)"/>
<path d="M0 0 C5.94 0 11.88 0 18 0 C18 1.32 18 2.64 18 4 C13.38 4 8.76 4 4 4 C4 7.3 4 10.6 4 14 C7.96 14 11.92 14 16 14 C16 14.99 16 15.98 16 17 C12.04 17 8.08 17 4 17 C4 21.95 4 26.9 4 32 C2.68 32 1.36 32 0 32 C0 21.44 0 10.88 0 0 Z " fill="#82807F" transform="translate(246,529)"/>
<path d="M0 0 C2.17578125 1.3828125 2.17578125 1.3828125 4 4 C4.49496208 7.42864754 4.37580926 10.79508424 4.25 14.25 C4.23195313 15.18585937 4.21390625 16.12171875 4.1953125 17.0859375 C4.14825673 19.39167015 4.08253713 21.69530945 4 24 C2.68 24 1.36 24 0 24 C-0.33 17.73 -0.66 11.46 -1 5 C-2.98 5 -4.96 5 -7 5 C-10.02093215 8.02093215 -9.46676834 11.56372072 -9.625 15.625 C-9.66367187 16.42679688 -9.70234375 17.22859375 -9.7421875 18.0546875 C-9.83653931 20.03607556 -9.91936215 22.01800645 -10 24 C-11.32 24 -12.64 24 -14 24 C-14 16.41 -14 8.82 -14 1 C-11.525 1.495 -11.525 1.495 -9 2 C-5.50875983 -0.32749345 -4.10777749 -0.50299316 0 0 Z " fill="#908F90" transform="translate(885,537)"/>
<path d="M0 0 C1.32 0 2.64 0 4 0 C4.06058594 1.28777344 4.12117187 2.57554687 4.18359375 3.90234375 C4.26798247 5.58074159 4.3526313 7.25912636 4.4375 8.9375 C4.47681641 9.78763672 4.51613281 10.63777344 4.55664062 11.51367188 C4.59853516 12.32255859 4.64042969 13.13144531 4.68359375 13.96484375 C4.72025146 14.7137085 4.75690918 15.46257324 4.79467773 16.23413086 C4.81771063 18.02461326 4.81771063 18.02461326 6 19 C8.45809998 19.2500773 8.45809998 19.2500773 11 19 C14.02093215 15.97906785 13.46676834 12.43627928 13.625 8.375 C13.66367187 7.57320312 13.70234375 6.77140625 13.7421875 5.9453125 C13.83653931 3.96392444 13.91936215 1.98199355 14 0 C15.32 0 16.64 0 18 0 C18 7.59 18 15.18 18 23 C17.01 23 16.02 23 15 23 C15 22.01 15 21.02 15 20 C14.505 20.495 14.01 20.99 13.5 21.5 C9.74351164 23.75389302 7.35420619 23.48380069 3 23 C0.78688605 21.19062981 0.0797561 19.72468186 -0.23217773 16.89038086 C-0.29587272 14.3366979 -0.26104565 11.80335394 -0.1875 9.25 C-0.17396484 8.36183594 -0.16042969 7.47367188 -0.14648438 6.55859375 C-0.11121309 4.37177422 -0.06192752 2.18620034 0 0 Z " fill="#7C7B7A" transform="translate(750,538)"/>
<path d="M0 0 C3.33885607 0.48691651 4.02555209 0.81257799 6 3.4375 C6.84416568 7.99295263 6.83972762 12.13125704 4.3125 16.0625 C1.53213485 17.71569009 0.17466958 18.08871427 -3 17.4375 C-5.28276734 15.62702935 -5.90092778 14.17714875 -6.28515625 11.30859375 C-6.41876934 7.7823699 -6.30305243 5.12778609 -4.875 1.875 C-3 0.4375 -3 0.4375 0 0 Z " fill="#FBFBFA" transform="translate(855,540.5625)"/>
<path d="M0 0 C2.21633759 1.77307007 2.88354434 3.0979308 3.24609375 5.90625 C3.48071042 13.30357563 3.48071042 13.30357563 1 16 C-2.4375 16.9375 -2.4375 16.9375 -6 17 C-7.69921875 15.84765625 -7.69921875 15.84765625 -9 14 C-9.3984375 11.40625 -9.3984375 11.40625 -9.375 8.5 C-9.38273438 7.5409375 -9.39046875 6.581875 -9.3984375 5.59375 C-9 3 -9 3 -7.6640625 1.18359375 C-5.04591544 -0.67860944 -3.1098951 -0.45352637 0 0 Z " fill="#FBFBFA" transform="translate(556,541)"/>
<path d="M0 0 C2.875 0.4375 2.875 0.4375 4.875 2.4375 C5.17578125 5.40625 5.17578125 5.40625 5.1875 8.9375 C5.20425781 10.1028125 5.22101562 11.268125 5.23828125 12.46875 C5.11839844 13.4484375 4.99851562 14.428125 4.875 15.4375 C1.64246204 17.59252531 0.62349077 17.90606135 -3.125 17.4375 C-5.90067992 15.27260539 -6.6321651 13.51696921 -7.0625 10.0625 C-7.33087566 6.6351192 -7.1818763 5.54897755 -5.5625 2.375 C-3.125 0.4375 -3.125 0.4375 0 0 Z " fill="#F9F9FA" transform="translate(734.125,540.5625)"/>
<path d="M0 0 C5.875 0.875 5.875 0.875 7 2 C7.15179378 4.30901696 7.22181122 6.62367069 7.25 8.9375 C7.28867187 10.83822266 7.28867187 10.83822266 7.328125 12.77734375 C7.21984375 13.84082031 7.1115625 14.90429688 7 16 C3.77856724 18.14762184 2.7404533 18.561068 -1 18 C-3.26445526 16.20405272 -3.88638713 14.7426402 -4.3203125 11.90625 C-4.53199278 7.6726445 -4.36964719 5.56602226 -2 1.9375 C-1.34 1.298125 -0.68 0.65875 0 0 Z " fill="#FAFAFA" transform="translate(321,540)"/>
<path d="M0 0 C2.375 0.875 2.375 0.875 4.375 3.875 C5.03570011 8.47685308 5.18582976 12.53401232 2.75 16.5625 C0.375 17.875 0.375 17.875 -2.8125 17.6875 C-5.625 16.875 -5.625 16.875 -6.625 15.875 C-6.80313354 13.75491884 -6.89289228 11.62708388 -6.9375 9.5 C-6.97488281 8.33726562 -7.01226562 7.17453125 -7.05078125 5.9765625 C-6.625 2.875 -6.625 2.875 -4.76953125 0.953125 C-2.625 -0.125 -2.625 -0.125 0 0 Z " fill="#FAF9F9" transform="translate(171.625,540.125)"/>
<path d="M0 0 C3.0625 0.3125 3.0625 0.3125 4.7265625 1.5234375 C6.94200595 4.49031791 6.52909255 7.34416366 6.4140625 10.92578125 C6.0625 13.3125 6.0625 13.3125 4.375 15.9375 C1.64432014 17.56114748 0.18699581 17.80584144 -2.9375 17.3125 C-4.9375 15.3125 -4.9375 15.3125 -5.203125 12.34375 C-5.19796875 11.1784375 -5.1928125 10.013125 -5.1875 8.8125 C-5.19265625 7.6471875 -5.1978125 6.481875 -5.203125 5.28125 C-4.83939876 1.21607442 -4.05590654 0.43147942 0 0 Z " fill="#FCFCFB" transform="translate(348.9375,540.6875)"/>
<path d="M0 0 C2.78779879 2.78779879 2.29961733 4.61802327 2.3125 8.5 C2.32925781 9.6653125 2.34601562 10.830625 2.36328125 12.03125 C2.24339844 13.0109375 2.12351562 13.990625 2 15 C-1.22143276 17.14762184 -2.2595467 17.561068 -6 17 C-8.80845416 14.06388884 -9.41135523 11.95475306 -9.375 7.9375 C-9.38273438 7.08027344 -9.39046875 6.22304688 -9.3984375 5.33984375 C-8.4661009 -0.13534862 -4.99246942 -0.53111377 0 0 Z " fill="#FCFCFC" transform="translate(676,541)"/>
<path d="M0 0 C9.16988417 -0.48262548 9.16988417 -0.48262548 12.6875 1.5625 C14.57481508 5.06751372 14.04621254 7.23363485 13 11 C8.61501596 13.92332269 5.2225328 13.1356502 0 13 C0 8.71 0 4.42 0 0 Z " fill="#EFF2F2" transform="translate(928,469)"/>
<path d="M0 0 C8.1201995 -0.48478803 8.1201995 -0.48478803 12.0625 1.6875 C14 4 14 4 14.5625 6.5 C13.77545847 9.99796235 13.04560766 11.04210936 10 13 C6.59270118 13.33645741 3.43939628 13.18102086 0 13 C0 8.71 0 4.42 0 0 Z " fill="#F0F2F2" transform="translate(206,469)"/>
<path d="M0 0 C2.375 1 2.375 1 4 2 C3.67 2.99 3.34 3.98 3 5 C0.02148438 4.46289062 0.02148438 4.46289062 -2.95703125 3.92578125 C-5.06599776 3.82264927 -5.06599776 3.82264927 -6.73828125 5.16796875 C-8.386534 7.56125216 -8.40078694 9.1118628 -8.375 12 C-8.38273438 12.86625 -8.39046875 13.7325 -8.3984375 14.625 C-8.166296 17.02710382 -8.166296 17.02710382 -6.76953125 18.80078125 C-4.47480385 20.35592763 -3.05882558 20.30690546 -0.3125 20.1875 C0.49574219 20.16042969 1.30398438 20.13335938 2.13671875 20.10546875 C3.05904297 20.05326172 3.05904297 20.05326172 4 20 C4 20.99 4 21.98 4 23 C-0.08946758 24.36315586 -3.7336913 24.7471644 -8 24 C-11.62385954 21.26361627 -12.68032878 19.78328987 -13.47265625 15.36328125 C-13.72141625 10.68786888 -13.65180102 7.10445126 -10.625 3.375 C-6.87466315 -0.01816191 -5.0128971 -0.30077383 0 0 Z " fill="#838281" transform="translate(787,537)"/>
<path d="M0 0 C4.16021408 -0.21153631 7.08997426 -0.34125965 11 1.125 C13 3 13 3 13.5625 5.9375 C13 9 13 9 11.5625 11.375 C7.67632781 13.83940188 4.54866791 13.2675687 0 13 C0 8.71 0 4.42 0 0 Z " fill="#F6F7F6" transform="translate(766,469)"/>
<path d="M0 0 C2.375 1 2.375 1 4 2 C3.67 2.99 3.34 3.98 3 5 C0.02148438 4.46289062 0.02148438 4.46289062 -2.95703125 3.92578125 C-5.06599776 3.82264927 -5.06599776 3.82264927 -6.73828125 5.16796875 C-8.386534 7.56125216 -8.40078694 9.1118628 -8.375 12 C-8.38273437 12.86625 -8.39046875 13.7325 -8.3984375 14.625 C-8.166296 17.02710382 -8.166296 17.02710382 -6.76953125 18.80078125 C-4.47480385 20.35592763 -3.05882558 20.30690546 -0.3125 20.1875 C0.49574219 20.16042969 1.30398438 20.13335938 2.13671875 20.10546875 C3.05904297 20.05326172 3.05904297 20.05326172 4 20 C3 23 3 23 1 24 C-6.13230769 24.70153846 -6.13230769 24.70153846 -9.9375 21.625 C-13.19233888 17.48247779 -13.38932696 14.72498208 -13.359375 9.55078125 C-12.78039966 5.44131496 -11.00085071 3.78650423 -8 1 C-5.2201184 -0.3899408 -3.0813674 -0.18488204 0 0 Z " fill="#7D7B79" transform="translate(400,537)"/>
<path d="M0 0 C0.99 0 1.98 0 3 0 C3 2.31 3 4.62 3 7 C4.98 7 6.96 7 9 7 C9 7.99 9 8.98 9 10 C7.02 10 5.04 10 3 10 C3.33 15.28 3.66 20.56 4 26 C5.65 26.33 7.3 26.66 9 27 C9 27.99 9 28.98 9 30 C5.6875 30.3125 5.6875 30.3125 2 30 C-1.36302553 26.02551529 -1.37325627 22.16481543 -1.1875 17.1875 C-1.17396484 16.49462891 -1.16042969 15.80175781 -1.14648438 15.08789062 C-1.11138845 13.39158735 -1.05758943 11.69568864 -1 10 C-1.99 10 -2.98 10 -4 10 C-4 9.01 -4 8.02 -4 7 C-2.68 7 -1.36 7 0 7 C0 4.69 0 2.38 0 0 Z " fill="#838280" transform="translate(821,531)"/>
<path d="M0 0 C2.3203125 0.06640625 2.3203125 0.06640625 5 1 C6.2571572 3.40195978 7.08685829 5.38866993 7.875 7.9375 C8.09929687 8.58396484 8.32359375 9.23042969 8.5546875 9.89648438 C10.15052343 14.69895313 10.15052343 14.69895313 9 17 C8.34 17.99 7.68 18.98 7 20 C4.6171875 20.29296875 4.6171875 20.29296875 1.875 20.1875 C-0.538125 20.0946875 -0.538125 20.0946875 -3 20 C-1.68 14.39 -0.36 8.78 1 3 C1.66 3 2.32 3 3 3 C3 2.34 3 1.68 3 1 C2.01 0.67 1.02 0.34 0 0 Z " fill="#8A8A8A" transform="translate(477,529)"/>
<path d="M0 0 C0.66 0.33 1.32 0.66 2 1 C2 6.61 2 12.22 2 18 C1.01 18 0.02 18 -1 18 C-1 17.34 -1 16.68 -1 16 C-1.495 16.33 -1.99 16.66 -2.5 17 C-6.20642412 18.48256965 -9.01105689 18.32168896 -13 18 C-15.32749345 14.50875983 -15.50299316 13.10777749 -15 9 C-13.1329009 6.69724444 -11.64352259 5.32176129 -9 4 C-6.6670134 3.95977609 -4.33293334 3.95679753 -2 4 C-3.28497537 6.56995074 -4.49912373 6.90434463 -7.0625 8.125 C-7.79597656 8.47820313 -8.52945312 8.83140625 -9.28515625 9.1953125 C-9.85105469 9.46085938 -10.41695313 9.72640625 -11 10 C-10.67 11.32 -10.34 12.64 -10 14 C-5.65815798 13.81535634 -5.65815798 13.81535634 -2 12 C-1.79160985 10.35892758 -1.63248275 8.71143707 -1.5 7.0625 C-1.10977702 2.21955403 -1.10977702 2.21955403 0 0 Z " fill="#7A7978" transform="translate(379,543)"/>
<path d="M0 0 C0.99 0 1.98 0 3 0 C3 11.22 3 22.44 3 34 C2.01 34 1.02 34 0 34 C0 33.34 0 32.68 0 32 C-1.65 32.66 -3.3 33.32 -5 34 C-4.625 32.0625 -4.625 32.0625 -4 30 C-3.34 29.67 -2.68 29.34 -2 29 C-2.01160156 27.92878906 -2.02320313 26.85757813 -2.03515625 25.75390625 C-2.04453299 24.35677257 -2.05363331 22.95963701 -2.0625 21.5625 C-2.07506836 20.50192383 -2.07506836 20.50192383 -2.08789062 19.41992188 C-2.09653588 17.61306441 -2.05220011 15.80612397 -2 14 C-1.67 13.67 -1.34 13.34 -1 13 C-0.76518307 10.81707226 -0.58636677 8.62796826 -0.4375 6.4375 C-0.35371094 5.23996094 -0.26992188 4.04242187 -0.18359375 2.80859375 C-0.12300781 1.88175781 -0.06242188 0.95492187 0 0 Z " fill="#828182" transform="translate(679,527)"/>
<path d="M0 0 C0.66 0.33 1.32 0.66 2 1 C1.5359375 2.1446875 1.5359375 2.1446875 1.0625 3.3125 C0.32106407 5.18789677 -0.36228217 7.08684652 -1 9 C0.37285156 8.96519531 0.37285156 8.96519531 1.7734375 8.9296875 C2.96195312 8.91164063 4.15046875 8.89359375 5.375 8.875 C6.55835938 8.85179687 7.74171875 8.82859375 8.9609375 8.8046875 C12 9 12 9 14 11 C9.38 11 4.76 11 0 11 C0.66 12.98 1.32 14.96 2 17 C4.40545638 18.20272819 5.94996953 18.10071472 8.625 18.0625 C9.44226563 18.05347656 10.25953125 18.04445313 11.1015625 18.03515625 C11.72804688 18.02355469 12.35453125 18.01195312 13 18 C13 18.99 13 19.98 13 21 C9.53984865 22.73007568 5.78327445 22.4835273 2 22 C-1.49890004 19.88608123 -2.70578686 18.88263941 -4 15 C-4.51976132 9.97280031 -4.77635718 6.21305809 -2 1.875 C-1.34 1.25625 -0.68 0.6375 0 0 Z " fill="#807E7C" transform="translate(294,539)"/>
<path d="M0 0 C1.423125 -0.061875 2.84625 -0.12375 4.3125 -0.1875 C5.51326172 -0.23970703 5.51326172 -0.23970703 6.73828125 -0.29296875 C9 0 9 0 10.80078125 1.2890625 C12 3 12 3 11.875 6.5625 C11 10 11 10 8 12 C5.95703125 12.1953125 5.95703125 12.1953125 3.8125 12.125 C1.9253125 12.063125 1.9253125 12.063125 0 12 C0 8.04 0 4.08 0 0 Z " fill="#FBFBFB" transform="translate(523,533)"/>
<path d="M0 0 C0 0.99 0 1.98 0 3 C-0.92232422 3.12955078 -0.92232422 3.12955078 -1.86328125 3.26171875 C-3.07564453 3.47248047 -3.07564453 3.47248047 -4.3125 3.6875 C-5.11300781 3.81511719 -5.91351563 3.94273437 -6.73828125 4.07421875 C-9.15412423 4.86379899 -9.15412423 4.86379899 -10.78125 7.0625 C-12.35428731 10.85392326 -12.32783518 14.28595981 -12.1875 18.3125 C-12.17396484 19.05306641 -12.16042969 19.79363281 -12.14648438 20.55664062 C-12.11135979 22.37141075 -12.05755972 24.18580288 -12 26 C-13.9375 25.6875 -13.9375 25.6875 -16 25 C-17.82069999 19.53790003 -18.22849479 12.39268249 -16.24609375 6.91796875 C-15.25 5.375 -15.25 5.375 -13 3 C-12.443125 2.38125 -11.88625 1.7625 -11.3125 1.125 C-7.66574774 -0.64909569 -3.98371984 -0.22982999 0 0 Z " fill="#777574" transform="translate(146,529)"/>
<path d="M0 0 C-0.125 1.875 -0.125 1.875 -1 4 C-4 5.125 -4 5.125 -7 6 C-8.585869 9.171738 -8.37866445 12.63513822 -8.5625 16.125 C-8.60568359 16.87910156 -8.64886719 17.63320313 -8.69335938 18.41015625 C-8.7994832 20.27321888 -8.90025001 22.13658524 -9 24 C-10.32 24 -11.64 24 -13 24 C-13 16.41 -13 8.82 -13 1 C-11.68 1 -10.36 1 -9 1 C-9 1.66 -9 2.32 -9 3 C-8.443125 2.505 -7.88625 2.01 -7.3125 1.5 C-4.61837017 -0.24754367 -3.14624993 -0.26218749 0 0 Z " fill="#868382" transform="translate(638,537)"/>
<path d="M0 0 C1.32 0 2.64 0 4 0 C4 10.23 4 20.46 4 31 C2.68 31 1.36 31 0 31 C0 20.77 0 10.54 0 0 Z " fill="#7E7E7D" transform="translate(496,530)"/>
<path d="M0 0 C0.33 0 0.66 0 1 0 C1.12117187 0.69867187 1.24234375 1.39734375 1.3671875 2.1171875 C1.53476562 3.02726563 1.70234375 3.93734375 1.875 4.875 C2.03742187 5.77992188 2.19984375 6.68484375 2.3671875 7.6171875 C2.83044703 10.16505988 2.83044703 10.16505988 5 12 C8.58343976 12.16677282 8.58343976 12.16677282 12 12 C12.19335938 11.38511719 12.38671875 10.77023437 12.5859375 10.13671875 C12.84632813 9.32847656 13.10671875 8.52023437 13.375 7.6875 C13.63023437 6.88699219 13.88546875 6.08648438 14.1484375 5.26171875 C15 3 15 3 17 0 C17.76740348 9.7374975 17.76740348 9.7374975 15.0625 14.1875 C10.95118477 16.62072738 7.65932938 17.18800261 3 16 C0.3751332 14.22381992 -0.34823031 12.87727624 -2 10 C-2.55884699 6.00823581 -2.10958512 3.42807582 0 0 Z " fill="#797A7A" transform="translate(545,545)"/>
<path d="M0 0 C4.29 0 8.58 0 13 0 C12.67 0.66 12.34 1.32 12 2 C9.35139573 2.59355614 6.70802678 2.74209269 4 3 C3.27507668 12.35927791 2.85743333 21.60644064 3 31 C2.01 31 1.02 31 0 31 C0 20.77 0 10.54 0 0 Z " fill="#747372" transform="translate(519,530)"/>
<path d="M0 0 C2.05449993 3.0817499 2.74475809 5.3095757 3.625 8.875 C3.88539063 9.90367187 4.14578125 10.93234375 4.4140625 11.9921875 C4.95301116 14.75879061 5.11394368 17.19284196 5 20 C2.03 20 -0.94 20 -4 20 C-3.34034961 13.13963599 -1.7637236 6.65556077 0 0 Z " fill="#E6ECEC" transform="translate(812,469)"/>
<path d="M0 0 C1.79041248 3.23831126 2.73750239 6.41415108 3.625 10 C3.88539063 11.03125 4.14578125 12.0625 4.4140625 13.125 C5 16 5 16 5 20 C1.7 20 -1.6 20 -5 20 C-4.35737498 17.04093596 -3.7110539 14.08276484 -3.0625 11.125 C-2.78889648 9.86236328 -2.78889648 9.86236328 -2.50976562 8.57421875 C-2.33251953 7.76855469 -2.15527344 6.96289062 -1.97265625 6.1328125 C-1.81031494 5.38918457 -1.64797363 4.64555664 -1.48071289 3.87939453 C-1 2 -1 2 0 0 Z " fill="#E0E7E7" transform="translate(171,469)"/>
<path d="M0 0 C2.9375 0.875 2.9375 0.875 4.9375 3.875 C4.75 6.9375 4.75 6.9375 3.9375 9.875 C0.9375 11.875 0.9375 11.875 -1.625 11.625 C-4.0625 10.875 -4.0625 10.875 -6.0625 8.875 C-6.39552312 5.7445827 -6.53921956 3.69601702 -4.9375 0.9375 C-3.0625 -0.125 -3.0625 -0.125 0 0 Z " fill="#868585" transform="translate(448.0625,540.125)"/>
<path d="M0 0 C0.33 0 0.66 0 1 0 C1 8.25 1 16.5 1 25 C2.32 24.34 3.64 23.68 5 23 C7.796875 22.8046875 7.796875 22.8046875 10.75 22.875 C11.73484375 22.89304687 12.7196875 22.91109375 13.734375 22.9296875 C14.48203125 22.95289063 15.2296875 22.97609375 16 23 C16 23.99 16 24.98 16 26 C10.06 26 4.12 26 -2 26 C-2.05417835 22.79143783 -2.09375995 19.58379976 -2.125 16.375 C-2.15013672 15.01955078 -2.15013672 15.01955078 -2.17578125 13.63671875 C-2.21201643 8.67249848 -1.96444146 4.65588093 0 0 Z " fill="#6E6E6B" transform="translate(703,535)"/>
<path d="M0 0 C2.05449993 3.0817499 2.74475809 5.3095757 3.625 8.875 C3.88539063 9.90367187 4.14578125 10.93234375 4.4140625 11.9921875 C4.95301116 14.75879061 5.11394368 17.19284196 5 20 C2.03 20 -0.94 20 -4 20 C-3.42978625 13.04339229 -1.98697306 6.68572695 0 0 Z " fill="#E6ECEC" transform="translate(602,469)"/>
<path d="M0 0 C2.16385601 3.24578402 2.7744171 5.65283567 3.625 9.4375 C4.01558594 11.13712891 4.01558594 11.13712891 4.4140625 12.87109375 C5 16 5 16 5 20 C2.03 20 -0.94 20 -4 20 C-3.21085905 13.21338787 -1.58725189 6.63850633 0 0 Z " fill="#EBEFEF" transform="translate(730,469)"/>
<path d="M0 0 C0.99 0 1.98 0 3 0 C3 0.66 3 1.32 3 2 C4.32 1.34 5.64 0.68 7 0 C6.6083965 5.95507399 5.62875405 10.62819824 3 16 C2.34 16 1.68 16 1 16 C0.67 15.01 0.34 14.02 0 13 C-0.99 13.495 -0.99 13.495 -2 14 C-2.1799928 8.78020872 -1.97094808 4.92737019 0 0 Z " fill="#174449" transform="translate(128,477)"/>
<path d="M0 0 C1.32 0 2.64 0 4 0 C4 7.59 4 15.18 4 23 C2.68 23 1.36 23 0 23 C0 15.41 0 7.82 0 0 Z " fill="#7E7C7B" transform="translate(835,538)"/>
<path d="M0 0 C3.96 0 7.92 0 12 0 C12.33 1.32 12.66 2.64 13 4 C9.04 4 5.08 4 1 4 C1 7.63 1 11.26 1 15 C5.62 15 10.24 15 15 15 C15 15.33 15 15.66 15 16 C13.35 16.33 11.7 16.66 10 17 C10 17.33 10 17.66 10 18 C6.7 18 3.4 18 0 18 C0 12.06 0 6.12 0 0 Z " fill="#919293" transform="translate(704,542)"/>
<path d="M0 0 C0.99 0 1.98 0 3 0 C3.84191782 2.9248633 4.11819313 5.50741656 4.09765625 8.546875 C4.09282227 9.81337891 4.09282227 9.81337891 4.08789062 11.10546875 C4.07951172 11.97816406 4.07113281 12.85085938 4.0625 13.75 C4.05798828 14.63816406 4.05347656 15.52632812 4.04882812 16.44140625 C4.037074 18.62767329 4.02064249 20.81380179 4 23 C2.68 23 1.36 23 0 23 C0 15.41 0 7.82 0 0 Z " fill="#858585" transform="translate(871,538)"/>
<path d="M0 0 C1.32 0 2.64 0 4 0 C4 0.66 4 1.32 4 2 C3.34 2 2.68 2 2 2 C1.96261719 2.556875 1.92523438 3.11375 1.88671875 3.6875 C1.40439364 9.28625424 0.16758121 13.81665364 -2 19 C0.64 19 3.28 19 6 19 C6 19.66 6 20.32 6 21 C4.54257537 21.08096803 3.08387193 21.13917774 1.625 21.1875 C0.81289063 21.22230469 0.00078125 21.25710938 -0.8359375 21.29296875 C-1.55007813 21.19628906 -2.26421875 21.09960938 -3 21 C-5.14415542 17.78376687 -5.19709249 16.84904948 -4.55859375 13.18359375 C-3.4038281 8.66950984 -1.68646137 4.33773553 0 0 Z " fill="#7F7E7D" transform="translate(476,530)"/>
<path d="M0 0 C1.94255541 2.91383311 3.43631781 5.87263562 5 9 C6.03406673 10.25949049 6.03406673 10.25949049 8.28515625 10.09765625 C9.20167969 10.08605469 10.11820313 10.07445312 11.0625 10.0625 C11.98160156 10.05347656 12.90070312 10.04445313 13.84765625 10.03515625 C14.55792969 10.02355469 15.26820313 10.01195312 16 10 C16 10.99 16 11.98 16 13 C12.31123973 14.84438013 8.02669687 14.48788734 4 14 C1.42362529 12.11484777 0.40332572 10.80665143 -1 8 C-1.125 4.4375 -1.125 4.4375 -1 1 C-0.67 0.67 -0.34 0.34 0 0 Z " fill="#80807F" transform="translate(602,547)"/>
<path d="M0 0 C0.33 0 0.66 0 1 0 C1 3.63 1 7.26 1 11 C1.66 11 2.32 11 3 11 C3.33 9.35 3.66 7.7 4 6 C4.33 6 4.66 6 5 6 C5 11.61 5 17.22 5 23 C3.35 23 1.7 23 0 23 C0 15.41 0 7.82 0 0 Z " fill="#9E9D9B" transform="translate(209,538)"/>
<path d="M0 0 C0.02578125 0.67546875 0.0515625 1.3509375 0.078125 2.046875 C0.34485997 7.69523216 0.34485997 7.69523216 2.9375 12.5625 C4.9309759 14.02571032 4.9309759 14.02571032 7 15 C7 15.66 7 16.32 7 17 C3.10496422 17.45291114 1.42316144 17.28517401 -1.875 15.0625 C-4.39258275 11.43421899 -4.52740006 9.38205437 -4.46875 5.0859375 C-3.96208936 2.83129764 -2.69651759 0 0 0 Z " fill="#7B7A78" transform="translate(317,544)"/>
<path d="M0 0 C0.66 0 1.32 0 2 0 C2.28875 1.11375 2.5775 2.2275 2.875 3.375 C3.69241329 7.00291092 3.69241329 7.00291092 6 9 C8.44012949 9.24287489 8.44012949 9.24287489 11.125 9.125 C12.03507813 9.10695313 12.94515625 9.08890625 13.8828125 9.0703125 C14.58148438 9.04710937 15.28015625 9.02390625 16 9 C16 9.99 16 10.98 16 12 C12.5259729 13.73701355 8.79821976 13.45263759 5 13 C2 11.5 2 11.5 0 9 C-0.76631447 6.22076091 -0.90405661 3.92627334 -1 1 C-0.67 0.67 -0.34 0.34 0 0 Z " fill="#797A78" transform="translate(186,548)"/>
<path d="M0 0 C0.33 0 0.66 0 1 0 C1.33 7.26 1.66 14.52 2 22 C3.32 22.66 4.64 23.32 6 24 C5.34 27.3 4.68 30.6 4 34 C2.68 34 1.36 34 0 34 C0 22.78 0 11.56 0 0 Z " fill="#81807E" transform="translate(409,527)"/>
<path d="M0 0 C0.66 0.66 1.32 1.32 2 2 C-0.6855594 4.6855594 -3.37621328 5.06049974 -7 6 C-7.66 8.97 -8.32 11.94 -9 15 C-9.66 14.01 -10.32 13.02 -11 12 C-11.99 12.495 -11.99 12.495 -13 13 C-13.34751969 10.08083462 -13.53280018 7.86804524 -11.95703125 5.30078125 C-8.08777731 0.61455874 -6.00972256 -0.37560766 0 0 Z " fill="#827F7B" transform="translate(858,537)"/>
<path d="M0 0 C0.36 5.4 0.36 5.4 -1.125 7.875 C-3.80858771 9.48515263 -5.93550972 9.26647742 -9 9 C-10 8 -10 8 -10.0625 5.4375 C-10.041875 4.633125 -10.02125 3.82875 -10 3 C-6.27034861 0.96564469 -4.33094958 0 0 0 Z " fill="#F3F2F3" transform="translate(809,549)"/>
<path d="M0 0 C0.1875 3.375 0.1875 3.375 0 7 C-3.22373677 9.14915785 -4.26703674 9.38286803 -8 9 C-8.66 8.34 -9.32 7.68 -10 7 C-9.9375 5.0625 -9.9375 5.0625 -9 3 C-5.65188866 0.46629412 -4.29875783 0 0 0 Z " fill="#F6F5F6" transform="translate(377,549)"/>
<path d="M0 0 C0.33 0 0.66 0 1 0 C1.08078641 2.12438339 1.13909141 4.2496323 1.1875 6.375 C1.23970703 8.15003906 1.23970703 8.15003906 1.29296875 9.9609375 C1.19628906 10.96382812 1.09960938 11.96671875 1 13 C-2 15 -2 15 -4.875 14.875 C-8.81700883 15.03268035 -10.1148006 16.43537831 -13 19 C-13.66 19 -14.32 19 -15 19 C-14.13005835 15.44114781 -13.57682194 13.46769346 -10.6875 11.125 C-7.80943231 9.92022748 -6.0809865 9.59460704 -3 10 C-2.01 10.66 -1.02 11.32 0 12 C0 8.04 0 4.08 0 0 Z " fill="#838080" transform="translate(678,527)"/>
<path d="M0 0 C0.99 0.33 1.98 0.66 3 1 C4.39044898 4.87862084 5 7.86462003 5 12 C2.03 12 -0.94 12 -4 12 C-3.52494322 10.18641846 -3.04483958 8.37415821 -2.5625 6.5625 C-2.29566406 5.55316406 -2.02882813 4.54382813 -1.75390625 3.50390625 C-1 1 -1 1 0 0 Z " fill="#F5F5F6" transform="translate(478,536)"/>
<path d="M0 0 C0.33 0 0.66 0 1 0 C1 3.96 1 7.92 1 12 C4.3 11.67 7.6 11.34 11 11 C11 12.32 11 13.64 11 15 C7.52674819 16.1577506 4.63932552 16.06866652 1 16 C1 19.96 1 23.92 1 28 C0.67 28 0.34 28 0 28 C-0.94512916 18.43238476 -0.94512916 9.56761524 0 0 Z " fill="#99999A" transform="translate(522,533)"/>
<path d="M0 0 C3 0.1875 3 0.1875 6 1 C8 4 8 4 8 7 C4.04 7 0.08 7 -4 7 C-2 2 -2 2 0 0 Z " fill="#F4F3F4" transform="translate(608,540)"/>
<path d="M0 0 C2.5625 0.3125 2.5625 0.3125 4.375 1.5625 C5.5625 3.3125 5.5625 3.3125 5.5625 7.3125 C1.9325 7.3125 -1.6975 7.3125 -5.4375 7.3125 C-4.07960526 0.52302632 -4.07960526 0.52302632 0 0 Z " fill="#F5F4F4" transform="translate(276.4375,539.6875)"/>
<path d="M0 0 C2.875 2 2.875 2 5 4 C4.67 5.65 4.34 7.3 4 9 C3.54625 8.34 3.0925 7.68 2.625 7 C-1.33232033 3.9848988 -5.19004145 4.66954483 -10 5 C-10.33 4.01 -10.66 3.02 -11 2 C-7.17369543 0.19938608 -4.22501011 -0.52812626 0 0 Z " fill="#858282" transform="translate(807,537)"/>
<path d="M0 0 C2.5 2.3125 2.5 2.3125 4 5 C3.75 7.3125 3.75 7.3125 3 9 C2.67 8.67 2.34 8.34 2 8 C1.67 9.98 1.34 11.96 1 14 C0.67 14 0.34 14 0 14 C-0.66 10.7 -1.32 7.4 -2 4 C-6.71058562 2.6278958 -6.71058562 2.6278958 -10 4 C-10.66 3.34 -11.32 2.68 -12 2 C-7.75834686 -1.21337359 -5.10471173 -1.48500705 0 0 Z " fill="#827F7E" transform="translate(176,538)"/>
<path d="M0 0 C2.4375 0.75 2.4375 0.75 4.4375 2.75 C4.4375 4.07 4.4375 5.39 4.4375 6.75 C0.8075 6.75 -2.8225 6.75 -6.5625 6.75 C-6.2325 5.1 -5.9025 3.45 -5.5625 1.75 C-2.5625 -0.25 -2.5625 -0.25 0 0 Z " fill="#F6F4F4" transform="translate(300.5625,540.25)"/>
<path d="M0 0 C0.33 0 0.66 0 1 0 C1.33 14.52 1.66 29.04 2 44 C4.31 44.33 6.62 44.66 9 45 C9 45.33 9 45.66 9 46 C6.03 46 3.06 46 0 46 C0 30.82 0 15.64 0 0 Z " fill="#0B3D43" transform="translate(308,461)"/>
<path d="M0 0 C2.4375 0.75 2.4375 0.75 4.4375 2.75 C4.4375 4.07 4.4375 5.39 4.4375 6.75 C0.8075 6.75 -2.8225 6.75 -6.5625 6.75 C-6.2325 5.1 -5.9025 3.45 -5.5625 1.75 C-2.5625 -0.25 -2.5625 -0.25 0 0 Z " fill="#F8F7F7" transform="translate(195.5625,540.25)"/>
<path d="M0 0 C0.33 0 0.66 0 1 0 C1 3.96 1 7.92 1 12 C1.66 12 2.32 12 3 12 C3.33 10.68 3.66 9.36 4 8 C4 12.95 4 17.9 4 23 C2.68 23 1.36 23 0 23 C0 15.41 0 7.82 0 0 Z " fill="#878683" transform="translate(625,538)"/>
<path d="M0 0 C1.9375 0.6875 1.9375 0.6875 3.9375 1.6875 C3.9375 3.3375 3.9375 4.9875 3.9375 6.6875 C0.3075 6.6875 -3.3225 6.6875 -7.0625 6.6875 C-4.13678571 -0.62678571 -4.13678571 -0.62678571 0 0 Z " fill="#F9F8F8" transform="translate(650.0625,540.3125)"/>
<path d="M0 0 C4.55618095 0.17867376 6.51909527 0.56002333 9.9375 3.6875 C12.14848467 7.23847537 12.48665196 8.91212349 12 13 C11.34 12.01 10.68 11.02 10 10 C9.67 10.33 9.34 10.66 9 11 C6.98035801 11.07244053 4.95832876 11.08377188 2.9375 11.0625 C1.83277344 11.05347656 0.72804688 11.04445313 -0.41015625 11.03515625 C-1.69212891 11.01775391 -1.69212891 11.01775391 -3 11 C-3 10.67 -3 10.34 -3 10 C0.3 10 3.6 10 7 10 C7 8.35 7 6.7 7 5 C6.01 4.67 5.02 4.34 4 4 C3.67 3.34 3.34 2.68 3 2 C2.01 1.34 1.02 0.68 0 0 Z " fill="#898988" transform="translate(647,537)"/>
<path d="M0 0 C3.875 1.875 3.875 1.875 5 3 C5.14115161 5.67058851 5.04247107 8.32432238 5 11 C0.05 11 -4.9 11 -10 11 C-8 9 -8 9 -5.6171875 8.8046875 C-4.71226562 8.82789063 -3.80734375 8.85109375 -2.875 8.875 C-1.50988281 8.90207031 -1.50988281 8.90207031 -0.1171875 8.9296875 C0.58148437 8.95289063 1.28015625 8.97609375 2 9 C1.01 6.36 0.02 3.72 -1 1 C-0.67 0.67 -0.34 0.34 0 0 Z " fill="#737172" transform="translate(614,539)"/>
<path d="M0 0 C0.66 0 1.32 0 2 0 C2 8.91 2 17.82 2 27 C1.34 26.67 0.68 26.34 0 26 C0 22.7 0 19.4 0 16 C-0.66 16 -1.32 16 -2 16 C-1.67 15.01 -1.34 14.02 -1 13 C-0.77548542 10.77425665 -0.59217122 8.54418481 -0.4375 6.3125 C-0.35371094 5.13300781 -0.26992188 3.95351563 -0.18359375 2.73828125 C-0.12300781 1.83464844 -0.06242188 0.93101562 0 0 Z " fill="#727170" transform="translate(679,527)"/>
<path d="M0 0 C0.66 0 1.32 0 2 0 C2.67184618 2.10251861 3.33730968 4.20707763 4 6.3125 C4.37125 7.48425781 4.7425 8.65601563 5.125 9.86328125 C6 13 6 13 6 16 C2.37 16 -1.26 16 -5 16 C-5 15.67 -5 15.34 -5 15 C-3.02 15 -1.04 15 1 15 C0.835 14.195625 0.67 13.39125 0.5 12.5625 C-0.09247348 8.34112648 -0.08506709 4.25335455 0 0 Z " fill="#355C61" transform="translate(186,492)"/>
<path d="M0 0 C0.99 0 1.98 0 3 0 C3.24927162 2.58281438 3.47499275 5.16412228 3.6875 7.75 C3.76033203 8.47960937 3.83316406 9.20921875 3.90820312 9.9609375 C4.17234629 13.37926075 4.28508387 15.51558309 2.51953125 18.515625 C2.01808594 19.00546875 1.51664062 19.4953125 1 20 C-0.1482685 17.703463 -0.11561175 16.41686833 -0.09765625 13.8671875 C-0.09443359 13.06152344 -0.09121094 12.25585938 -0.08789062 11.42578125 C-0.07951172 10.58402344 -0.07113281 9.74226562 -0.0625 8.875 C-0.05798828 8.02550781 -0.05347656 7.17601562 -0.04882812 6.30078125 C-0.03702874 4.20049091 -0.01909306 2.1002367 0 0 Z " fill="#706E6B" transform="translate(340,527)"/>
<path d="M0 0 C0.33 0 0.66 0 1 0 C1 3.96 1 7.92 1 12 C1.99 11.34 2.98 10.68 4 10 C9.30875576 9.44700461 9.30875576 9.44700461 11.875 11.5 C12.24625 11.995 12.6175 12.49 13 13 C12.01 13 11.02 13 10 13 C9.67 13.66 9.34 14.32 9 15 C6 15 3 15 0 15 C0 10.05 0 5.1 0 0 Z " fill="#949191" transform="translate(343,527)"/>
<path d="M0 0 C2.3129482 2.3129482 2.49580975 3.47904875 3.125 6.625 C3.29257813 7.44226563 3.46015625 8.25953125 3.6328125 9.1015625 C3.81457031 10.04128906 3.81457031 10.04128906 4 11 C3.67 11 3.34 11 3 11 C2.67 18.26 2.34 25.52 2 33 C-1.3 33 -4.6 33 -8 33 C-8 32.67 -8 32.34 -8 32 C-5.03 32 -2.06 32 1 32 C0.67 21.44 0.34 10.88 0 0 Z " fill="#9DADAE" transform="translate(111,475)"/>
<path d="M0 0 C1.32 0 2.64 0 4 0 C2.75971762 6.17222879 1.10396411 12.06682122 -1 18 C-1.33 18 -1.66 18 -2 18 C-2.2361959 11.59646678 -1.823321 6.15370839 0 0 Z " fill="#747373" transform="translate(593,538)"/>
<path d="M0 0 C0.33 0 0.66 0 1 0 C1.33 11.55 1.66 23.1 2 35 C4.31 35 6.62 35 9 35 C9 35.66 9 36.32 9 37 C6.03 37 3.06 37 0 37 C0 24.79 0 12.58 0 0 Z " fill="#083D42" transform="translate(246,470)"/>
<path d="M0 0 C2.375 1 2.375 1 4 2 C3.67 2.99 3.34 3.98 3 5 C1.783125 4.7525 0.56625 4.505 -0.6875 4.25 C-4.25696088 3.77449455 -4.78546053 3.86144326 -8 5.9375 C-8.99 6.9584375 -8.99 6.9584375 -10 8 C-10.25 5.6875 -10.25 5.6875 -10 3 C-7.01483053 -0.3296121 -4.31439824 -0.44941648 0 0 Z " fill="#787574" transform="translate(787,537)"/>
<path d="M0 0 C3.82524236 1.450954 5.19090966 3.38181932 7 7 C7 7.66 7 8.32 7 9 C6.01 9.495 6.01 9.495 5 10 C4.53248212 12.35599235 4.53248212 12.35599235 4.375 15.0625 C4.30023438 15.98160156 4.22546875 16.90070312 4.1484375 17.84765625 C4.09945312 18.55792969 4.05046875 19.26820313 4 20 C3.67 20 3.34 20 3 20 C2.98582031 19.20335937 2.97164062 18.40671875 2.95703125 17.5859375 C2.64441431 10.64077203 2.17846031 6.78011721 -3 2 C-2.01 1.34 -1.02 0.68 0 0 Z " fill="#888886" transform="translate(147,530)"/>
<path d="M0 0 C0.99 0 1.98 0 3 0 C3 5.61 3 11.22 3 17 C2.01 17 1.02 17 0 17 C0 11.39 0 5.78 0 0 Z " fill="#79797A" transform="translate(886,544)"/>
<path d="M0 0 C0.99 0 1.98 0 3 0 C3 2.31 3 4.62 3 7 C4.98 7 6.96 7 9 7 C9 7.66 9 8.32 9 9 C7.58456585 9.19658808 6.16755969 9.38187546 4.75 9.5625 C3.96109375 9.66691406 3.1721875 9.77132812 2.359375 9.87890625 C-0.00532874 10.00027349 -1.7511037 9.69633257 -4 9 C-4 8.34 -4 7.68 -4 7 C-2.68 7 -1.36 7 0 7 C0 4.69 0 2.38 0 0 Z " fill="#71706F" transform="translate(821,531)"/>
<path d="M0 0 C0.66 0.33 1.32 0.66 2 1 C2 6.61 2 12.22 2 18 C1.01 18 0.02 18 -1 18 C-1.02690844 15.37493198 -1.04679404 12.75013827 -1.0625 10.125 C-1.07087891 9.37863281 -1.07925781 8.63226562 -1.08789062 7.86328125 C-1.11328125 2.2265625 -1.11328125 2.2265625 0 0 Z " fill="#747573" transform="translate(379,543)"/>
<path d="M0 0 C0.66 0 1.32 0 2 0 C2 5.94 2 11.88 2 18 C1.01 18 0.02 18 -1 18 C-1.02684312 15.18743719 -1.04676188 12.37512759 -1.0625 9.5625 C-1.07087891 8.76005859 -1.07925781 7.95761719 -1.08789062 7.13085938 C-1.0965143 5.08704779 -1.0522815 3.04316098 -1 1 C-0.67 0.67 -0.34 0.34 0 0 Z " fill="#6F716F" transform="translate(330,543)"/>
<path d="M0 0 C-3.75 2 -3.75 2 -6 2 C-6.33 5.3 -6.66 8.6 -7 12 C-7.33 12 -7.66 12 -8 12 C-8.33 10.35 -8.66 8.7 -9 7 C-9.66 8.65 -10.32 10.3 -11 12 C-11.33 12 -11.66 12 -12 12 C-11.88541307 10.56163249 -11.75790884 9.12429034 -11.625 7.6875 C-11.55539062 6.88699219 -11.48578125 6.08648438 -11.4140625 5.26171875 C-11 3 -11 3 -9 0 C-5.77646698 -1.33387573 -3.32361268 -0.83090317 0 0 Z " fill="#8C8787" transform="translate(554,540)"/>
<path d="M0 0 C2.4375 0.375 2.4375 0.375 5 1 C6.20272819 3.40545638 6.10071472 4.94996953 6.0625 7.625 C6.05347656 8.44226563 6.04445313 9.25953125 6.03515625 10.1015625 C6.02355469 10.72804688 6.01195312 11.35453125 6 12 C5.01 12.33 4.02 12.66 3 13 C2.86722656 12.39671875 2.73445313 11.7934375 2.59765625 11.171875 C2.42105469 10.37265625 2.24445313 9.5734375 2.0625 8.75 C1.88847656 7.96109375 1.71445312 7.1721875 1.53515625 6.359375 C1.052444 4.23121297 0.53836822 2.11467158 0 0 Z " fill="#737170" transform="translate(353,540)"/>
<path d="M0 0 C1.46726798 3.81489674 0.43336419 6.29011622 -1 10 C0.65 9.67 2.3 9.34 4 9 C4 9.99 4 10.98 4 12 C1.03 12 -1.94 12 -5 12 C-4.54965877 10.37276701 -4.08944646 8.74826336 -3.625 7.125 C-3.36976563 6.22007812 -3.11453125 5.31515625 -2.8515625 4.3828125 C-2 2 -2 2 0 0 Z " fill="#114448" transform="translate(587,495)"/>
<path d="M0 0 C0.33 0 0.66 0 1 0 C1 4.62 1 9.24 1 14 C-1.64 14 -4.28 14 -7 14 C-7 11.36 -7 8.72 -7 6 C-5 8 -5 8 -5 12 C-3.68 12 -2.36 12 -1 12 C-1.20625 11.319375 -1.4125 10.63875 -1.625 9.9375 C-2.10063829 6.21166669 -1.17669149 3.53007446 0 0 Z " fill="#0A3C3E" transform="translate(111,493)"/>
<path d="M0 0 C1.32 0.66 2.64 1.32 4 2 C4 6.26826873 3.62386487 6.93882432 1 10 C-1.475 9.01 -1.475 9.01 -4 8 C-3.525625 7.236875 -3.05125 6.47375 -2.5625 5.6875 C-0.89893903 3.03589452 -0.89893903 3.03589452 0 0 Z " fill="#1F4D54" transform="translate(700,462)"/>
<path d="M0 0 C0.33 0 0.66 0 1 0 C1 6.27 1 12.54 1 19 C-1.97 19 -4.94 19 -8 19 C-8 17.35 -8 15.7 -8 14 C-7.34 13.67 -6.68 13.34 -6 13 C-6 14.32 -6 15.64 -6 17 C-4.35 16.67 -2.7 16.34 -1 16 C-0.67 10.72 -0.34 5.44 0 0 Z " fill="#0A3D43" transform="translate(853,488)"/>
<path d="M0 0 C0.66 0.33 1.32 0.66 2 1 C1.690625 1.680625 1.38125 2.36125 1.0625 3.0625 C-0.13370649 6.36965912 -0.59005397 9.51545878 -1 13 C-1.99 13.33 -2.98 13.66 -4 14 C-4.63019694 5.96498906 -4.63019694 5.96498906 -2 1.9375 C-1.34 1.298125 -0.68 0.65875 0 0 Z " fill="#7D7773" transform="translate(294,539)"/>
<path d="M0 0 C0.99 0.66 1.98 1.32 3 2 C1.79618552 4.49361571 0.54571278 6.68143083 -1 9 C-2.98 8.34 -4.96 7.68 -7 7 C-4.66666667 4.66666667 -2.33333333 2.33333333 0 0 Z " fill="#25555C" transform="translate(92,463)"/>
<path d="M0 0 C0.66 0 1.32 0 2 0 C3.0625 1.75 3.0625 1.75 4 4 C3.67 5.32 3.34 6.64 3 8 C-1.95 8 -6.9 8 -12 8 C-11.67 7.34 -11.34 6.68 -11 6 C-7.37 6.33 -3.74 6.66 0 7 C-0.185625 6.030625 -0.37125 5.06125 -0.5625 4.0625 C-0.706875 3.051875 -0.85125 2.04125 -1 1 C-0.67 0.67 -0.34 0.34 0 0 Z " fill="#908F8D" transform="translate(282,540)"/>
<path d="M0 0 C2.46278801 2.46278801 2.99771255 4.70676982 4 8 C3.34 8 2.68 8 2 8 C2 15.92 2 23.84 2 32 C1.67 32 1.34 32 1 32 C0.67 21.44 0.34 10.88 0 0 Z " fill="#BBC6C8" transform="translate(316,475)"/>
<path d="M0 0 C2 2 2 2 2.3125 5.3125 C1.98867205 9.13366982 1.22414284 10.94180359 -1 14 C-1.66 13.67 -2.32 13.34 -3 13 C-2.69240822 11.02006459 -2.3787932 9.04106401 -2.0625 7.0625 C-1.88847656 5.96035156 -1.71445313 4.85820313 -1.53515625 3.72265625 C-1 1 -1 1 0 0 Z " fill="#757373" transform="translate(178,545)"/>
<path d="M0 0 C0.66 0 1.32 0 2 0 C2 0.99 2 1.98 2 3 C2.66 3 3.32 3 4 3 C3.71926927 5.14729141 3.42511501 7.29283193 3.125 9.4375 C2.88136719 11.22994141 2.88136719 11.22994141 2.6328125 13.05859375 C2.31957031 14.51458984 2.31957031 14.51458984 2 16 C1.34 16.33 0.68 16.66 0 17 C0 11.39 0 5.78 0 0 Z " fill="#71706C" transform="translate(162,538)"/>
<path d="M0 0 C-0.61875 0.2475 -1.2375 0.495 -1.875 0.75 C-4.38895216 2.22879539 -4.8534051 3.37921165 -6 6 C-7.95216435 7.95216435 -9.53199953 8.84826645 -12 10 C-11.70197895 6.52308771 -10.9882377 4.98487704 -8.8125 2.1875 C-5.54121494 -0.35683282 -4.03884885 -0.46963359 0 0 Z " fill="#898685" transform="translate(325,537)"/>
<path d="M0 0 C0.33 0 0.66 0 1 0 C1 5.61 1 11.22 1 17 C0.34 16.67 -0.32 16.34 -1 16 C-1 15.34 -1 14.68 -1 14 C-1.66 13.67 -2.32 13.34 -3 13 C-2.67 12.01 -2.34 11.02 -2 10 C-2 8.68 -2 7.36 -2 6 C-1.34 6 -0.68 6 0 6 C0 5.01 0 4.02 0 3 C-0.66 3 -1.32 3 -2 3 C-1 1 -1 1 0 0 Z " fill="#6D6E6B" transform="translate(811,544)"/>
<path d="M0 0 C0.33 0 0.66 0 1 0 C1.33 5.28 1.66 10.56 2 16 C0.02 16.66 -1.96 17.32 -4 18 C-4 17.34 -4 16.68 -4 16 C-4.66 15.67 -5.32 15.34 -6 15 C-4.35 14.34 -2.7 13.68 -1 13 C-0.67 8.71 -0.34 4.42 0 0 Z " fill="#8A8B8B" transform="translate(328,543)"/>
<path d="M0 0 C0.66 0.33 1.32 0.66 2 1 C1.67 2.32 1.34 3.64 1 5 C4.3 5 7.6 5 11 5 C11 5.33 11 5.66 11 6 C3.41 6 -4.18 6 -12 6 C-12 5.67 -12 5.34 -12 5 C-8.7 4.67 -5.4 4.34 -2 4 C-2.33 3.01 -2.66 2.02 -3 1 C-2.01 0.67 -1.02 0.34 0 0 Z " fill="#B4C3C5" transform="translate(792,502)"/>
<path d="M0 0 C2.78633115 4.17949673 4 6.93375326 4 12 C0.125 10.25 0.125 10.25 -1 8 C-1.125 4.4375 -1.125 4.4375 -1 1 C-0.67 0.67 -0.34 0.34 0 0 Z " fill="#777673" transform="translate(602,547)"/>
<path d="M0 0 C2 2 2 2 2.125 5.125 C2.08375 6.07375 2.0425 7.0225 2 8 C1.01 7.67 0.02 7.34 -1 7 C-3.22574335 6.77548542 -5.45581519 6.59217122 -7.6875 6.4375 C-9.45673828 6.31181641 -9.45673828 6.31181641 -11.26171875 6.18359375 C-12.16535156 6.12300781 -13.06898438 6.06242188 -14 6 C-13.67 5.01 -13.34 4.02 -13 3 C-13 3.66 -13 4.32 -13 5 C-9.37 5 -5.74 5 -2 5 C-1.67 4.01 -1.34 3.02 -1 2 C-0.67 1.34 -0.34 0.68 0 0 Z " fill="#999795" transform="translate(307,542)"/>
<path d="M0 0 C0.66 0.33 1.32 0.66 2 1 C0.68 4.3 -0.64 7.6 -2 11 C-3.98 11 -5.96 11 -8 11 C-8 10.01 -8 9.02 -8 8 C-5.03 8.495 -5.03 8.495 -2 9 C-2.3403125 7.88625 -2.3403125 7.88625 -2.6875 6.75 C-3 4 -3 4 -1.5625 1.6875 C-1.046875 1.130625 -0.53125 0.57375 0 0 Z " fill="#245659" transform="translate(129,493)"/>
<path d="M0 0 C3.63 0 7.26 0 11 0 C11 0.99 11 1.98 11 3 C5.06 3 -0.88 3 -7 3 C-7 2.67 -7 2.34 -7 2 C-3.535 1.505 -3.535 1.505 0 1 C0 0.67 0 0.34 0 0 Z " fill="#777877" transform="translate(708,558)"/>
<path d="M0 0 C0.66 0 1.32 0 2 0 C2 1.98 2 3.96 2 6 C-2.62 6 -7.24 6 -12 6 C-10 4 -10 4 -7.6171875 3.8046875 C-6.71226562 3.82789063 -5.80734375 3.85109375 -4.875 3.875 C-3.50988281 3.90207031 -3.50988281 3.90207031 -2.1171875 3.9296875 C-1.41851562 3.95289063 -0.71984375 3.97609375 0 4 C0 2.68 0 1.36 0 0 Z " fill="#72706F" transform="translate(201,544)"/>
<path d="M0 0 C0.99 0 1.98 0 3 0 C4.13016601 5.02296004 3.77916092 8.97874074 3 14 C-0.16470185 9.25294723 -0.10927475 5.68228705 0 0 Z " fill="#747371" transform="translate(871,538)"/>
<path d="M0 0 C2.31 0.66 4.62 1.32 7 2 C7 2.33 7 2.66 7 3 C4 4 1 5 -2 6 C-3.66710346 7.49985609 -3.66710346 7.49985609 -5 9 C-4.5206753 4.68607774 -3.2542015 2.83430453 0 0 Z " fill="#888585" transform="translate(729,538)"/>
<path d="M0 0 C0.33 0 0.66 0 1 0 C1.33 6.93 1.66 13.86 2 21 C2.99 20.01 3.98 19.02 5 18 C4.67 19.98 4.34 21.96 4 24 C2.68 23.67 1.36 23.34 0 23 C0 15.41 0 7.82 0 0 Z " fill="#888585" transform="translate(412,527)"/>
<path d="M0 0 C1.22589844 0.01353516 1.22589844 0.01353516 2.4765625 0.02734375 C3.41628906 0.04474609 3.41628906 0.04474609 4.375 0.0625 C4.375 1.0525 4.375 2.0425 4.375 3.0625 C2.91763913 3.25741452 1.45905407 3.44319358 0 3.625 C-0.81210938 3.72941406 -1.62421875 3.83382812 -2.4609375 3.94140625 C-4.625 4.0625 -4.625 4.0625 -6.625 3.0625 C-6.625 2.4025 -6.625 1.7425 -6.625 1.0625 C-4.21954362 -0.14022819 -2.67503047 -0.03821472 0 0 Z " fill="#7C7B7B" transform="translate(141.625,528.9375)"/>
<path d="M0 0 C0.66 0.66 1.32 1.32 2 2 C-0.76223278 4.76223278 -3.20706617 4.57856291 -7 5 C-7.33 3.68 -7.66 2.36 -8 1 C-5.23749964 -0.38125018 -3.05268901 -0.19079306 0 0 Z " fill="#8C878A" transform="translate(858,537)"/>
<path d="M0 0 C0.99 0 1.98 0 3 0 C3.66 2.31 4.32 4.62 5 7 C1.7 7 -1.6 7 -5 7 C-5 6.34 -5 5.68 -5 5 C-3.02 5 -1.04 5 1 5 C0.67 3.35 0.34 1.7 0 0 Z " fill="#10444A" transform="translate(746,500)"/>
<path d="M0 0 C3.3 0 6.6 0 10 0 C9 3 9 3 7 4 C4.3276379 4.13415472 1.67749512 4.04318541 -1 4 C-0.67 2.68 -0.34 1.36 0 0 Z " fill="#808181" transform="translate(394,557)"/>
<path d="M0 0 C0.99 0.99 1.98 1.98 3 3 C3 3.66 3 4.32 3 5 C3.66 5 4.32 5 5 5 C4.67 6.65 4.34 8.3 4 10 C2.35 9.67 0.7 9.34 -1 9 C-0.67 6.03 -0.34 3.06 0 0 Z " fill="#868687" transform="translate(573,551)"/>
<path d="M0 0 C0.66 0 1.32 0 2 0 C2 1.32 2 2.64 2 4 C2.66 4 3.32 4 4 4 C3.67 6.64 3.34 9.28 3 12 C2.01 11.67 1.02 11.34 0 11 C0 7.37 0 3.74 0 0 Z " fill="#74706C" transform="translate(210,538)"/>
<path d="M0 0 C1.32 0 2.64 0 4 0 C5.32229189 2.64458379 5.09677194 4.67761301 5.0625 7.625 C5.05347656 8.62789062 5.04445313 9.63078125 5.03515625 10.6640625 C5.02355469 11.43492187 5.01195312 12.20578125 5 13 C4.67 13 4.34 13 4 13 C3.67 10.69 3.34 8.38 3 6 C2.34 6.99 1.68 7.98 1 9 C0.67 6.03 0.34 3.06 0 0 Z " fill="#878787" transform="translate(558,542)"/>
<path d="M0 0 C0.66 0 1.32 0 2 0 C2 1.32 2 2.64 2 4 C2.66 4 3.32 4 4 4 C3.33333333 6.66666667 2.66666667 9.33333333 2 12 C1.34 12 0.68 12 0 12 C0 8.04 0 4.08 0 0 Z " fill="#716F6A" transform="translate(626,538)"/>
<path d="M0 0 C0.66 0.66 1.32 1.32 2 2 C1.01 2.66 0.02 3.32 -1 4 C-1.33 3.67 -1.66 3.34 -2 3 C-4.33297433 2.95907063 -6.66705225 2.95758277 -9 3 C-9 2.01 -9 1.02 -9 0 C-5.88135455 -1.55932272 -3.33704665 -0.65549131 0 0 Z " fill="#838180" transform="translate(281,538)"/>
<path d="M0 0 C0.75 1.625 0.75 1.625 1 4 C-2.136 9.712 -2.136 9.712 -6 11 C-6.33 10.01 -6.66 9.02 -7 8 C-6.401875 7.4225 -5.80375 6.845 -5.1875 6.25 C-3.2517316 4.25892393 -1.61090717 2.25527003 0 0 Z " fill="#1F4C55" transform="translate(382,495)"/>
<path d="M0 0 C0.36521739 5.47826087 0.36521739 5.47826087 -1.3125 7.875 C-3 9 -3 9 -6 9 C-3.4 0 -3.4 0 0 0 Z " fill="#777777" transform="translate(538,538)"/>
<path d="M0 0 C0.66 0.66 1.32 1.32 2 2 C-1.18762365 4.12508244 -3.26512223 4.5020163 -7 5 C-7.66 4.01 -8.32 3.02 -9 2 C-5.54754176 -0.30163882 -4.05261287 -0.34490322 0 0 Z " fill="#858182" transform="translate(613,537)"/>
<path d="M0 0 C0.144375 0.598125 0.28875 1.19625 0.4375 1.8125 C0.8872439 3.56150404 1.42892341 5.28677023 2 7 C1.01 6.67 0.02 6.34 -1 6 C-3.29453495 6.09406754 -3.29453495 6.09406754 -5.6875 6.4375 C-6.49574219 6.53933594 -7.30398438 6.64117188 -8.13671875 6.74609375 C-9.05904297 6.87177734 -9.05904297 6.87177734 -10 7 C-7.58996822 4.58996822 -5.03599269 3.51799634 -2 2 C-1.34 1.34 -0.68 0.68 0 0 Z " fill="#7A7C7B" transform="translate(809,554)"/>
<path d="M0 0 C0.93423645 3.01031744 1.04449911 3.86650268 0 7 C-2.64 7 -5.28 7 -8 7 C-7.34 6.67 -6.68 6.34 -6 6 C-6 5.34 -6 4.68 -6 4 C-4.7934375 3.566875 -4.7934375 3.566875 -3.5625 3.125 C-0.8673532 2.26737432 -0.8673532 2.26737432 0 0 Z " fill="#838382" transform="translate(175,554)"/>
<path d="M0 0 C0.99 0.33 1.98 0.66 3 1 C3 2.98 3 4.96 3 7 C2.34 6.01 1.68 5.02 1 4 C0.67 4.33 0.34 4.66 0 5 C-2.01964199 5.07244053 -4.04167124 5.08377188 -6.0625 5.0625 C-7.16722656 5.05347656 -8.27195312 5.04445313 -9.41015625 5.03515625 C-10.69212891 5.01775391 -10.69212891 5.01775391 -12 5 C-12 4.67 -12 4.34 -12 4 C-8.7 4 -5.4 4 -2 4 C-1.67 3.01 -1.34 2.02 -1 1 C-0.67 0.67 -0.34 0.34 0 0 Z " fill="#A19F9E" transform="translate(656,543)"/>
<path d="M0 0 C0.99 0.66 1.98 1.32 3 2 C3.1875 5.625 3.1875 5.625 3 9 C2.67 9 2.34 9 2 9 C2 7.02 2 5.04 2 3 C1.34 3 0.68 3 0 3 C0 4.32 0 5.64 0 7 C-3.96 7 -7.92 7 -12 7 C-12 6.67 -12 6.34 -12 6 C-8.37 6 -4.74 6 -1 6 C-1 4.35 -1 2.7 -1 1 C-0.67 0.67 -0.34 0.34 0 0 Z " fill="#A19F9E" transform="translate(201,541)"/>
<path d="M0 0 C0.99 0.33 1.98 0.66 3 1 C3 2.32 3 3.64 3 5 C1 6.75 1 6.75 -1 8 C-1.66 7.67 -2.32 7.34 -3 7 C-2.38722388 4.03824877 -1.74627478 2.61941217 0 0 Z " fill="#1D4E54" transform="translate(536,495)"/>
<path d="M0 0 C0 0.66 0 1.32 0 2 C-4.29 2 -8.58 2 -13 2 C-13 1.34 -13 0.68 -13 0 C-11.20909747 -0.19466332 -9.41723495 -0.38051213 -7.625 -0.5625 C-6.12839844 -0.71912109 -6.12839844 -0.71912109 -4.6015625 -0.87890625 C-2 -1 -2 -1 0 0 Z " fill="#747270" transform="translate(286,548)"/>
<path d="M0 0 C0.33 1.32 0.66 2.64 1 4 C-2.96 4 -6.92 4 -11 4 C-10.67 3.34 -10.34 2.68 -10 2 C-7.96875 1.62109375 -7.96875 1.62109375 -5.5 1.4375 C-2.45018475 1.4207737 -2.45018475 1.4207737 0 0 Z " fill="#706E6E" transform="translate(657,546)"/>
<path d="M0 0 C1.9375 0.8125 1.9375 0.8125 4 2 C5 5 5 5 4 8 C3.34 8 2.68 8 2 8 C0.3125 5.6875 0.3125 5.6875 -1 3 C-0.67 2.01 -0.34 1.02 0 0 Z " fill="#787A76" transform="translate(859,539)"/>
<path d="M0 0 C0.66 0 1.32 0 2 0 C2.33 1.65 2.66 3.3 3 5 C2.34 5 1.68 5 1 5 C0.67 5.99 0.34 6.98 0 8 C-3.3 8 -6.6 8 -10 8 C-10 7.67 -10 7.34 -10 7 C-7.03 7 -4.06 7 -1 7 C-0.67 4.69 -0.34 2.38 0 0 Z " fill="#919391" transform="translate(484,541)"/>
<path d="M0 0 C2.3129482 2.3129482 2.49580975 3.47904875 3.125 6.625 C3.29257813 7.44226563 3.46015625 8.25953125 3.6328125 9.1015625 C3.81457031 10.04128906 3.81457031 10.04128906 4 11 C3.01 11.66 2.02 12.32 1 13 C0.1276588 10.00519083 -0.10829766 7.36424089 -0.0625 4.25 C-0.05347656 3.45078125 -0.04445313 2.6515625 -0.03515625 1.828125 C-0.02355469 1.22484375 -0.01195313 0.6215625 0 0 Z " fill="#B9C8C9" transform="translate(111,475)"/>
<path d="M0 0 C0.66 0.33 1.32 0.66 2 1 C2 1.66 2 2.32 2 3 C4.64 3 7.28 3 10 3 C10 3.66 10 4.32 10 5 C7.03 5 4.06 5 1 5 C0.34 3.68 -0.32 2.36 -1 1 C-0.67 0.67 -0.34 0.34 0 0 Z " fill="#6C6D6D" transform="translate(472,546)"/>
<path d="M0 0 C1.52299523 2.93720508 2.80100302 5.9168649 4 9 C1.5625 8.3125 1.5625 8.3125 -1 7 C-1.9375 4.5 -1.9375 4.5 -2 2 C-1.34 1.34 -0.68 0.68 0 0 Z " fill="#777572" transform="translate(847,548)"/>
<path d="M0 0 C0.33 0 0.66 0 1 0 C1.08078641 2.12438339 1.13909141 4.2496323 1.1875 6.375 C1.22230469 7.55835938 1.25710938 8.74171875 1.29296875 9.9609375 C1.19628906 10.96382812 1.09960938 11.96671875 1 13 C-2 15 -2 15 -4.6875 14.625 C-5.450625 14.41875 -6.21375 14.2125 -7 14 C-6.360625 13.87625 -5.72125 13.7525 -5.0625 13.625 C-4.381875 13.41875 -3.70125 13.2125 -3 13 C-2.67 12.34 -2.34 11.68 -2 11 C-1.34 11.33 -0.68 11.66 0 12 C0 8.04 0 4.08 0 0 Z " fill="#908E91" transform="translate(678,527)"/>
<path d="M0 0 C-0.33 0.99 -0.66 1.98 -1 3 C-3.5625 4.1875 -3.5625 4.1875 -6 5 C-6 5.66 -6 6.32 -6 7 C-7.32 6.67 -8.64 6.34 -10 6 C-2.92307692 0 -2.92307692 0 0 0 Z " fill="#1E5156" transform="translate(684,461)"/>
<path d="M0 0 C1.5625 1.125 1.5625 1.125 3 3 C2.6875 6.1875 2.6875 6.1875 2 9 C1.34 9 0.68 9 0 9 C-1.125 3.375 -1.125 3.375 0 0 Z " fill="#7C7D7C" transform="translate(470,547)"/>
<path d="M0 0 C0.33 0.66 0.66 1.32 1 2 C2.65 1.34 4.3 0.68 6 0 C6 0.33 6 0.66 6 1 C7.65 1.33 9.3 1.66 11 2 C10.67 2.66 10.34 3.32 10 4 C2.58823529 5.29411765 2.58823529 5.29411765 0 4 C0 2.68 0 1.36 0 0 Z " fill="#908B8B" transform="translate(212,538)"/>
<path d="M0 0 C3.94727588 -0.17942163 6.5980513 -0.09350689 10 2 C9.67 2.99 9.34 3.98 9 5 C7.0625 4.6875 7.0625 4.6875 5 4 C4.67 3.01 4.34 2.02 4 1 C1.98491642 0.26676204 1.98491642 0.26676204 0 0 Z " fill="#898886" transform="translate(781,537)"/>
<path d="M0 0 C0 2.97 0 5.94 0 9 C-0.33 9 -0.66 9 -1 9 C-1.33 7.35 -1.66 5.7 -2 4 C-2.66 5.65 -3.32 7.3 -4 9 C-4.33 9 -4.66 9 -5 9 C-5.25 6.1875 -5.25 6.1875 -5 3 C-1.9 0 -1.9 0 0 0 Z " fill="#9C9A98" transform="translate(547,543)"/>
<path d="M0 0 C1.32 0 2.64 0 4 0 C3.67 1.98 3.34 3.96 3 6 C1.68 6 0.36 6 -1 6 C-0.67 4.02 -0.34 2.04 0 0 Z " fill="#838181" transform="translate(593,538)"/>
<path d="M0 0 C5.53846154 -0.36923077 5.53846154 -0.36923077 7.875 1.5 C8.24625 1.995 8.6175 2.49 9 3 C8.01 3.66 7.02 4.32 6 5 C5.34 4.34 4.68 3.68 4 3 C1.93125966 2.3574765 1.93125966 2.3574765 0 2 C0 1.34 0 0.68 0 0 Z " fill="#7F7C7C" transform="translate(193,538)"/>
<path d="M0 0 C1.32 0 2.64 0 4 0 C4 1.65 4 3.3 4 5 C2.35 4.67 0.7 4.34 -1 4 C-0.67 2.68 -0.34 1.36 0 0 Z " fill="#7E7F80" transform="translate(835,528)"/>
<path d="M0 0 C2 2 2 2 2 6 C4.31 6 6.62 6 9 6 C9 6.33 9 6.66 9 7 C5.7 7 2.4 7 -1 7 C-0.67 4.69 -0.34 2.38 0 0 Z " fill="#597D7C" transform="translate(152,501)"/>
<path d="M0 0 C0.99 0.33 1.98 0.66 3 1 C3.33 2.65 3.66 4.3 4 6 C0.37 6 -3.26 6 -7 6 C-7 5.67 -7 5.34 -7 5 C-4.36 5 -1.72 5 1 5 C0.67 3.35 0.34 1.7 0 0 Z " fill="#4C7275" transform="translate(227,502)"/>
<path d="M0 0 C0.33 0.66 0.66 1.32 1 2 C2.90178785 2.60061233 2.90178785 2.60061233 5 3 C5.99 3.33 6.98 3.66 8 4 C8 4.66 8 5.32 8 6 C8.99 6.33 9.98 6.66 11 7 C6.00088076 6.52389341 3.02167317 4.96837781 -1 2 C-0.67 1.34 -0.34 0.68 0 0 Z " fill="#275D61" transform="translate(676,501)"/>
<path d="M0 0 C0.94875 0.350625 1.8975 0.70125 2.875 1.0625 C2.875 1.7225 2.875 2.3825 2.875 3.0625 C-2.875 3.1875 -2.875 3.1875 -5.125 2.0625 C-5.125 1.4025 -5.125 0.7425 -5.125 0.0625 C-3.125 -0.9375 -3.125 -0.9375 0 0 Z " fill="#717273" transform="translate(321.125,557.9375)"/>
<path d="M0 0 C0 0.99 0 1.98 0 3 C-3.21451269 4.60725635 -6.43612536 4.05748185 -10 4 C-7.25346796 1.25346796 -3.91404908 0 0 0 Z " fill="#6F7272" transform="translate(284,557)"/>
<path d="M0 0 C0.33 0 0.66 0 1 0 C1 4.29 1 8.58 1 13 C0.01 13 -0.98 13 -2 13 C-1.855625 12.154375 -1.71125 11.30875 -1.5625 10.4375 C-0.9941203 6.96406851 -0.48797607 3.48554338 0 0 Z " fill="#767978" transform="translate(331,548)"/>
<path d="M0 0 C0 0.99 0 1.98 0 3 C-2.95664519 4.4783226 -5.74229737 4.06032783 -9 4 C-6.1329385 1.1329385 -4.08408532 0 0 0 Z " fill="#7C7D7E" transform="translate(307,557)"/>
<path d="M0 0 C0.93423645 3.01031744 1.04449911 3.86650268 0 7 C-1.32 7 -2.64 7 -4 7 C-3.43628586 3.73045798 -2.50037734 2.17424117 0 0 Z " fill="#777675" transform="translate(475,540)"/>
<path d="M0 0 C-2.63904371 1.41377341 -5.07120629 2.37240135 -8 3 C-8.33 2.01 -8.66 1.02 -9 0 C-5.93109813 -1.53445094 -3.29905734 -0.54984289 0 0 Z " fill="#7C7878" transform="translate(652,539)"/>
<path d="M0 0 C1.9451 2.91765 2.45276317 4.62537285 3 8 C1.68 7.67 0.36 7.34 -1 7 C-1.04254356 5.00045254 -1.04080783 2.99958364 -1 1 C-0.67 0.67 -0.34 0.34 0 0 Z " fill="#336365" transform="translate(829,494)"/>
<path d="M0 0 C0 0.99 0 1.98 0 3 C-1.98 3.33 -3.96 3.66 -6 4 C-6.66 3.01 -7.32 2.02 -8 1 C-5.23735711 0.40267181 -2.83967231 0 0 0 Z " fill="#808382" transform="translate(657,557)"/>
<path d="M0 0 C0 0.99 0 1.98 0 3 C-1.98 3.33 -3.96 3.66 -6 4 C-6.66 3.01 -7.32 2.02 -8 1 C-5.23735711 0.40267181 -2.83967231 0 0 0 Z " fill="#8B8C8C" transform="translate(618,557)"/>
<path d="M0 0 C1 3 1 3 1 6 C-0.65 6.33 -2.3 6.66 -4 7 C-4 5.68 -4 4.36 -4 3 C-2 1.25 -2 1.25 0 0 Z " fill="#818486" transform="translate(148,554)"/>
<path d="M0 0 C0.33 0 0.66 0 1 0 C1 2.64 1 5.28 1 8 C0.01 8.33 -0.98 8.66 -2 9 C-1.125 2.25 -1.125 2.25 0 0 Z " fill="#747372" transform="translate(545,545)"/>
<path d="M0 0 C0.99 0 1.98 0 3 0 C3 1.98 3 3.96 3 6 C2.01 6.33 1.02 6.66 0 7 C0 4.69 0 2.38 0 0 Z " fill="#75716D" transform="translate(290,546)"/>
<path d="M0 0 C0.99 0.33 1.98 0.66 3 1 C4.66362417 1.34820041 6.32995171 1.68404492 8 2 C8 2.33 8 2.66 8 3 C4.7 3.33 1.4 3.66 -2 4 C-2 3.01 -2 2.02 -2 1 C-1.34 0.67 -0.68 0.34 0 0 Z " fill="#959092" transform="translate(367,538)"/>
<path d="M0 0 C1.875 0.1875 1.875 0.1875 4 1 C5.25 3.5625 5.25 3.5625 6 6 C5.01 6 4.02 6 3 6 C0 2.66666667 0 2.66666667 0 0 Z " fill="#1E535A" transform="translate(873,497)"/>
<path d="M0 0 C0.33 0 0.66 0 1 0 C1.144375 1.0725 1.28875 2.145 1.4375 3.25 C1.87348673 6.78337031 1.87348673 6.78337031 2.6875 9.25 C3 11 3 11 1 14 C0.06380187 10.84493858 -0.1057123 8.03413498 -0.0625 4.75 C-0.05347656 3.85796875 -0.04445313 2.9659375 -0.03515625 2.046875 C-0.02355469 1.37140625 -0.01195312 0.6959375 0 0 Z " fill="#537175" transform="translate(625,480)"/>
<path d="M0 0 C0.33 0 0.66 0 1 0 C1 4.62 1 9.24 1 14 C0.01 14.495 0.01 14.495 -1 15 C-1.33 14.01 -1.66 13.02 -2 12 C-1.67 11.34 -1.34 10.68 -1 10 C-0.77377919 8.29636178 -0.59111527 6.58671299 -0.4375 4.875 C-0.35371094 3.96492188 -0.26992188 3.05484375 -0.18359375 2.1171875 C-0.12300781 1.41851562 -0.06242188 0.71984375 0 0 Z " fill="#345C5F" transform="translate(910,476)"/>
<path d="M0 0 C2 3 2 3 1.625 6.1875 C1.41875 7.115625 1.2125 8.04375 1 9 C-0.32 9.33 -1.64 9.66 -3 10 C-2.690625 9.46375 -2.38125 8.9275 -2.0625 8.375 C-0.82172561 5.6015043 -0.4090325 2.99957163 0 0 Z " fill="#0E4343" transform="translate(942,472)"/>
<path d="M0 0 C2.32590854 3.63423209 2.16265833 6.77088331 2 11 C1.67 11 1.34 11 1 11 C1 9.02 1 7.04 1 5 C0.01 5.33 -0.98 5.66 -2 6 C-1.125 1.125 -1.125 1.125 0 0 Z " fill="#918F8D" transform="translate(776,541)"/>
<path d="M0 0 C1.32 0.33 2.64 0.66 4 1 C2.35 2.65 0.7 4.3 -1 6 C-1.33 5.01 -1.66 4.02 -2 3 C-1.34 2.01 -0.68 1.02 0 0 Z " fill="#1E4F56" transform="translate(783,482)"/>
<path d="M0 0 C0.33 0 0.66 0 1 0 C1 2.97 1 5.94 1 9 C0.01 9 -0.98 9 -2 9 C-1.125 2.25 -1.125 2.25 0 0 Z " fill="#CED7DD" transform="translate(136,477)"/>
<path d="M0 0 C0.66 0 1.32 0 2 0 C2.66 2.97 3.32 5.94 4 9 C3.34 9 2.68 9 2 9 C1.34 6.03 0.68 3.06 0 0 Z " fill="#275456" transform="translate(820,470)"/>
<path d="M0 0 C2 3 2 3 2 7 C1.01 7.495 1.01 7.495 0 8 C-0.66 8.99 -1.32 9.98 -2 11 C-1 3.57142857 -1 3.57142857 0 0 Z " fill="#CAD4D8" transform="translate(730,469)"/>
<path d="M0 0 C1.39195915 4.17587745 -0.17676781 6.13474776 -2 10 C-2.33 10 -2.66 10 -3 10 C-3.36923077 4.58461538 -3.36923077 4.58461538 -1.5 1.625 C-1.005 1.08875 -0.51 0.5525 0 0 Z " fill="#767572" transform="translate(727,543)"/>
<path d="M0 0 C0.66 0 1.32 0 2 0 C2 1.98 2 3.96 2 6 C1.01 6 0.02 6 -1 6 C-1.042721 4.33388095 -1.04063832 2.66617115 -1 1 C-0.67 0.67 -0.34 0.34 0 0 Z " fill="#797872" transform="translate(186,548)"/>
<path d="M0 0 C1.98 0 3.96 0 6 0 C5.67 0.99 5.34 1.98 5 3 C3.02 3 1.04 3 -1 3 C-0.67 2.01 -0.34 1.02 0 0 Z " fill="#848383" transform="translate(370,537)"/>
<path d="M0 0 C1.65 0 3.3 0 5 0 C5 0.99 5 1.98 5 3 C2.69 3 0.38 3 -2 3 C-1.34 2.67 -0.68 2.34 0 2 C0 1.34 0 0.68 0 0 Z " fill="#808182" transform="translate(825,558)"/>
<path d="M0 0 C0.99 1.32 1.98 2.64 3 4 C1.68 4.33 0.36 4.66 -1 5 C-1.66 3.68 -2.32 2.36 -3 1 C-2.01 0.67 -1.02 0.34 0 0 Z " fill="#7B7D7C" transform="translate(425,556)"/>
<path d="M0 0 C0 0.99 0 1.98 0 3 C-1.32 3.33 -2.64 3.66 -4 4 C-4 3.34 -4 2.68 -4 2 C-5.32 1.67 -6.64 1.34 -8 1 C-5.23735711 0.40267181 -2.83967231 0 0 0 Z " fill="#878989" transform="translate(202,557)"/>
<path d="M0 0 C0.33 1.32 0.66 2.64 1 4 C-2 6 -2 6 -5 7 C-4.60196439 4.11424181 -4.20990931 3.17810487 -1.9375 1.25 C-1.298125 0.8375 -0.65875 0.425 0 0 Z " fill="#7C7E7C" transform="translate(378,554)"/>
<path d="M0 0 C0.66 0 1.32 0 2 0 C2.1875 2.375 2.1875 2.375 2 5 C1.01 5.66 0.02 6.32 -1 7 C-1.04254356 5.00045254 -1.04080783 2.99958364 -1 1 C-0.67 0.67 -0.34 0.34 0 0 Z " fill="#706C6C" transform="translate(152,539)"/>
<path d="M0 0 C1.9451 2.91765 2.45276317 4.62537285 3 8 C1.68 7.34 0.36 6.68 -1 6 C-0.67 4.02 -0.34 2.04 0 0 Z " fill="#29585D" transform="translate(121,480)"/>
<path d="M0 0 C2.46278801 2.46278801 2.99771255 4.70676982 4 8 C3.01 8.33 2.02 8.66 1 9 C0.67 6.03 0.34 3.06 0 0 Z " fill="#C9D8DA" transform="translate(316,475)"/>
<path d="M0 0 C1.32 0.66 2.64 1.32 4 2 C3.34 3.32 2.68 4.64 2 6 C1.01 5.34 0.02 4.68 -1 4 C-0.67 2.68 -0.34 1.36 0 0 Z " fill="#2A5259" transform="translate(560,463)"/>
</svg>
